<svg xmlns="http://www.w3.org/2000/svg" xmlns:xlink="http://www.w3.org/1999/xlink" width="1440" height="653" fill="none" xmlns:v="https://vecta.io/nano"><g clip-path="url(#B)"><path fill="#fff" d="M0-102h1440v13426H0z"/><g stroke="#def7ec"><circle cx="720" cy="-35" r="430.5"/><circle cx="720" cy="-35" r="668.5"/></g><g filter="url(#A)"><circle cx="719.5" cy="125.5" r="97.5" fill="#11b4a3"/></g><g fill="#1a202e"><path d="M607.985 442h1.404v-2.988h2.112c1.668 0 2.616-1.152 2.616-2.508s-.936-2.508-2.616-2.508h-3.516V442zm4.692-5.496c0 .768-.576 1.272-1.368 1.272h-1.92v-2.544h1.92c.792 0 1.368.504 1.368 1.272zm7.781 5.496h1.62l-1.956-3.144c.96-.156 1.896-.924 1.896-2.352 0-1.476-1.032-2.508-2.616-2.508h-3.516V442h1.404v-2.988h1.392l1.776 2.988zm.12-5.496c0 .768-.576 1.272-1.368 1.272h-1.92v-2.544h1.92c.792 0 1.368.504 1.368 1.272zm3.083 1.5c0 2.388 1.692 4.14 4.092 4.14s4.092-1.752 4.092-4.14-1.692-4.14-4.092-4.14-4.092 1.752-4.092 4.14zm6.744 0c0 1.644-1.044 2.892-2.652 2.892-1.62 0-2.652-1.248-2.652-2.892 0-1.656 1.032-2.892 2.652-2.892 1.608 0 2.652 1.236 2.652 2.892zm3.392 3.996h2.976c2.496 0 4.188-1.644 4.188-3.996s-1.692-4.008-4.188-4.008h-2.976V442zm1.404-1.236v-5.532h1.572c1.788 0 2.748 1.224 2.748 2.772 0 1.512-1.008 2.76-2.748 2.76h-1.572zm7.715-1.92c0 1.968 1.14 3.3 3.468 3.3 2.316 0 3.456-1.32 3.456-3.312v-4.836h-1.416v4.8c0 1.272-.708 2.1-2.04 2.1-1.344 0-2.052-.828-2.052-2.1v-4.8h-1.416v4.848zm13.005 3.3c1.68 0 2.664-.84 3.276-1.8l-1.2-.612c-.384.672-1.152 1.164-2.076 1.164-1.524 0-2.7-1.212-2.7-2.892s1.176-2.892 2.7-2.892c.924 0 1.692.504 2.076 1.164l1.2-.612c-.6-.96-1.596-1.8-3.276-1.8-2.304 0-4.14 1.68-4.14 4.14s1.836 4.14 4.14 4.14zm6.908-.144h1.404v-6.768h2.424v-1.236h-6.252v1.236h2.424V442zm9.3 0h2.976c2.496 0 4.188-1.644 4.188-3.996s-1.692-4.008-4.188-4.008h-2.976V442zm1.404-1.236v-5.532h1.572c1.788 0 2.748 1.224 2.748 2.772 0 1.512-1.008 2.76-2.748 2.76h-1.572zm7.715 1.236h5.484v-1.236h-4.08v-2.22h3.996v-1.236h-3.996v-2.076h4.08v-1.236h-5.484V442zm7.01-1.128c.708.756 1.776 1.272 3.252 1.272 2.16 0 3.096-1.14 3.096-2.472 0-1.74-1.572-2.148-2.892-2.484-.948-.24-1.764-.444-1.764-1.068 0-.6.528-.996 1.356-.996.84 0 1.692.288 2.316.912l.804-1.044c-.744-.72-1.752-1.116-3-1.116-1.752 0-2.916 1.02-2.916 2.34 0 1.692 1.536 2.076 2.844 2.4.972.252 1.824.468 1.824 1.188 0 .528-.456 1.092-1.608 1.092-1.116 0-1.98-.516-2.532-1.104l-.78 1.08zm8.241 1.128h1.404v-8.004h-1.404V442zm3.346-3.996c0 2.508 1.884 4.152 4.2 4.152 1.392 0 2.508-.576 3.3-1.452v-3h-3.792v1.236h2.388v1.248c-.36.336-1.08.72-1.896.72-1.584 0-2.76-1.224-2.76-2.904s1.176-2.892 2.76-2.892c.9 0 1.656.468 2.076 1.068l1.152-.648c-.648-.924-1.668-1.668-3.228-1.668-2.316 0-4.2 1.632-4.2 4.14zM714.986 442h1.356v-8.004h-1.404v5.676l-4.092-5.676h-1.44V442h1.404v-5.832l4.176 5.832zm17.533.24h.936l2.844-8.484h-.936l-2.844 8.484zm4.385 0h.936l2.844-8.484h-.936l-2.844 8.484zm23.746-.096c1.68 0 2.664-.84 3.276-1.8l-1.2-.612c-.384.672-1.152 1.164-2.076 1.164-1.524 0-2.7-1.212-2.7-2.892s1.176-2.892 2.7-2.892c.924 0 1.692.504 2.076 1.164l1.2-.612c-.6-.96-1.596-1.8-3.276-1.8-2.304 0-4.14 1.68-4.14 4.14s1.836 4.14 4.14 4.14zm10.605-.144h1.536l-3.144-8.004h-1.752L764.751 442h1.536l.588-1.536h3.792l.588 1.536zm-2.484-6.816l1.5 4.044h-3l1.5-4.044zm4.861 5.688c.708.756 1.776 1.272 3.252 1.272 2.16 0 3.096-1.14 3.096-2.472 0-1.74-1.572-2.148-2.892-2.484-.948-.24-1.764-.444-1.764-1.068 0-.6.528-.996 1.356-.996.84 0 1.692.288 2.316.912l.804-1.044c-.744-.72-1.752-1.116-3-1.116-1.752 0-2.916 1.02-2.916 2.34 0 1.692 1.536 2.076 2.844 2.4.972.252 1.824.468 1.824 1.188 0 .528-.456 1.092-1.608 1.092-1.116 0-1.98-.516-2.532-1.104l-.78 1.08zm8.241 1.128h5.484v-1.236h-4.08v-2.22h3.996v-1.236h-3.996v-2.076h4.08v-1.236h-5.484V442zm10.692-1.128c.708.756 1.776 1.272 3.252 1.272 2.16 0 3.096-1.14 3.096-2.472 0-1.74-1.572-2.148-2.892-2.484-.948-.24-1.764-.444-1.764-1.068 0-.6.528-.996 1.356-.996.84 0 1.692.288 2.316.912l.804-1.044c-.744-.72-1.752-1.116-3-1.116-1.752 0-2.916 1.02-2.916 2.34 0 1.692 1.536 2.076 2.844 2.4.972.252 1.824.468 1.824 1.188 0 .528-.456 1.092-1.608 1.092-1.116 0-1.98-.516-2.532-1.104l-.78 1.08zM802.596 442H804v-6.768h2.424v-1.236h-6.252v1.236h2.424V442zm5.618-3.156c0 1.968 1.14 3.3 3.468 3.3 2.316 0 3.456-1.32 3.456-3.312v-4.836h-1.416v4.8c0 1.272-.708 2.1-2.04 2.1-1.344 0-2.052-.828-2.052-2.1v-4.8h-1.416v4.848zm9.225 3.156h2.976c2.496 0 4.188-1.644 4.188-3.996s-1.692-4.008-4.188-4.008h-2.976V442zm1.404-1.236v-5.532h1.572c1.788 0 2.748 1.224 2.748 2.772 0 1.512-1.008 2.76-2.748 2.76h-1.572zm9.503 1.236h1.404v-3.324l3.096-4.68h-1.608l-2.184 3.432-2.208-3.432h-1.608l3.108 4.68V442zM589.915 293c-.768 0-1.376-.208-1.824-.624-.416-.448-.624-1.04-.624-1.776v-29.04c0-.736.208-1.312.624-1.728.448-.448 1.056-.672 1.824-.672h9.408c5.472 0 9.712 1.472 12.72 4.416s4.512 7.104 4.512 12.48-1.504 9.552-4.512 12.528c-3.008 2.944-7.248 4.416-12.72 4.416h-9.408zm9.12-4.128c8.32 0 12.48-4.272 12.48-12.816 0-8.512-4.16-12.768-12.48-12.768h-6.624v25.584h6.624zm26.117 4.368c-.704 0-1.296-.192-1.776-.576-.448-.384-.672-.96-.672-1.728v-19.488c0-.768.224-1.344.672-1.728.48-.416 1.072-.624 1.776-.624s1.28.208 1.728.624c.448.384.672.96.672 1.728v19.488c0 .768-.224 1.344-.672 1.728s-1.024.576-1.728.576zm0-28.848c-.928 0-1.664-.256-2.208-.768s-.816-1.184-.816-2.016.272-1.488.816-1.968c.544-.512 1.28-.768 2.208-.768.896 0 1.616.256 2.16.768.576.48.864 1.136.864 1.968s-.272 1.504-.816 2.016-1.28.768-2.208.768zm27.513 22.704c.448 0 .816.176 1.104.528s.432.8.432 1.344c0 .928-.576 1.712-1.728 2.352-1.12.64-2.352 1.136-3.696 1.488-1.312.352-2.576.528-3.792.528-3.712 0-6.64-1.072-8.784-3.216-2.144-2.176-3.216-5.136-3.216-8.88 0-2.4.464-4.528 1.392-6.384.96-1.856 2.288-3.296 3.984-4.32 1.728-1.024 3.68-1.536 5.856-1.536 3.136 0 5.616 1.008 7.44 3.024s2.736 4.736 2.736 8.16c0 1.28-.576 1.92-1.728 1.92h-14.832c.32 4.96 2.704 7.44 7.152 7.44 1.184 0 2.208-.16 3.072-.48s1.776-.736 2.736-1.248c.096-.064.352-.192.768-.384.448-.224.816-.336 1.104-.336zm-8.352-14.544c-1.856 0-3.344.592-4.464 1.776s-1.792 2.848-2.016 4.992h12.384c-.096-2.176-.656-3.84-1.68-4.992-.992-1.184-2.4-1.776-4.224-1.776zm26.66 16.992c.704.064 1.2.256 1.488.576.32.288.48.704.48 1.248 0 .64-.256 1.136-.768 1.488-.48.32-1.2.448-2.16.384l-1.296-.096c-2.592-.192-4.528-.976-5.808-2.352-1.28-1.408-1.92-3.472-1.92-6.192v-11.28h-2.88c-1.408 0-2.112-.624-2.112-1.872 0-.576.176-1.024.528-1.344.384-.352.912-.528 1.584-.528h2.88v-4.944c0-.736.208-1.312.624-1.728.448-.416 1.04-.624 1.776-.624s1.328.208 1.776.624.672.992.672 1.728v4.944h4.752c.672 0 1.184.176 1.536.528.384.32.576.768.576 1.344 0 .608-.192 1.072-.576 1.392-.352.32-.864.48-1.536.48h-4.752v11.616c0 1.504.304 2.608.912 3.312.64.704 1.6 1.104 2.88 1.2l1.344.096zm29.242 3.696c-.736 0-1.344-.224-1.824-.672-.448-.48-.672-1.088-.672-1.824v-27.456h-9.6c-1.536 0-2.304-.688-2.304-2.064 0-.672.192-1.184.576-1.536.416-.352.992-.528 1.728-.528h24.192c.736 0 1.296.176 1.68.528.416.352.624.864.624 1.536 0 1.376-.768 2.064-2.304 2.064h-9.6v27.456c0 .736-.224 1.344-.672 1.824-.448.448-1.056.672-1.824.672zm26.511-24.144c1.536-.096 2.304.56 2.304 1.968 0 .704-.176 1.232-.528 1.584s-.96.56-1.824.624l-1.44.144c-2.016.192-3.52.896-4.512 2.112-.96 1.216-1.44 2.688-1.44 4.416v10.992c0 .768-.224 1.344-.672 1.728s-1.024.576-1.728.576-1.296-.192-1.776-.576c-.448-.384-.672-.96-.672-1.728V271.4c0-.736.224-1.296.672-1.68.48-.416 1.072-.624 1.776-.624.64 0 1.168.208 1.584.624.448.384.672.928.672 1.632v2.304c.64-1.408 1.568-2.48 2.784-3.216s2.592-1.168 4.128-1.296l.672-.048zm14.99-.096c3.104 0 5.408.784 6.912 2.352 1.536 1.568 2.304 3.952 2.304 7.152v12.432c0 .736-.208 1.312-.624 1.728-.416.384-.992.576-1.728.576-.704 0-1.264-.208-1.68-.624s-.624-.976-.624-1.68v-1.776c-.608 1.344-1.52 2.384-2.736 3.12-1.184.704-2.576 1.056-4.176 1.056-1.536 0-2.944-.304-4.224-.912-1.28-.64-2.288-1.52-3.024-2.64-.704-1.12-1.056-2.368-1.056-3.744 0-1.696.432-3.024 1.296-3.984.896-.992 2.352-1.696 4.368-2.112 2.048-.416 4.848-.624 8.4-.624h1.104v-1.392c0-1.792-.368-3.088-1.104-3.888s-1.92-1.2-3.552-1.2c-1.12 0-2.176.144-3.168.432s-2.08.704-3.264 1.248c-.864.48-1.472.72-1.824.72-.48 0-.88-.176-1.2-.528-.288-.352-.432-.8-.432-1.344 0-.48.128-.896.384-1.248.288-.384.736-.752 1.344-1.104 1.12-.608 2.432-1.088 3.936-1.44 1.504-.384 2.96-.576 4.368-.576zm-1.488 20.736c1.76 0 3.2-.592 4.32-1.776 1.12-1.216 1.68-2.768 1.68-4.656v-1.248h-.864c-2.496 0-4.416.112-5.76.336s-2.304.608-2.88 1.152c-.576.512-.864 1.264-.864 2.256 0 1.152.416 2.096 1.248 2.832s1.872 1.104 3.12 1.104zm27.367 3.6c-2.272 0-4.272-.496-6-1.488-1.696-.992-3.024-2.4-3.984-4.224-.928-1.824-1.392-3.936-1.392-6.336 0-2.432.48-4.576 1.44-6.432.992-1.856 2.368-3.296 4.128-4.32s3.776-1.536 6.048-1.536c1.216 0 2.432.176 3.648.528 1.248.352 2.352.832 3.312 1.44 1.024.704 1.536 1.52 1.536 2.448 0 .544-.144 1.008-.432 1.392-.288.352-.656.528-1.104.528-.288 0-.576-.064-.864-.192-.288-.16-.656-.384-1.104-.672-.8-.512-1.552-.896-2.256-1.152-.672-.288-1.488-.432-2.448-.432-2.176 0-3.872.736-5.088 2.208-1.184 1.472-1.776 3.52-1.776 6.144s.592 4.656 1.776 6.096c1.184 1.408 2.864 2.112 5.04 2.112.96 0 1.808-.144 2.544-.432s1.488-.672 2.256-1.152c.352-.224.704-.416 1.056-.576s.672-.24.96-.24c.448 0 .816.192 1.104.576.288.352.432.8.432 1.344 0 .448-.128.864-.384 1.248-.224.352-.624.72-1.2 1.104-.96.64-2.08 1.136-3.36 1.488s-2.576.528-3.888.528zm32.851-4.128c.576.48.864 1.072.864 1.776 0 .608-.208 1.136-.624 1.584s-.912.672-1.488.672c-.608 0-1.152-.224-1.632-.672l-11.952-10.56v8.88c0 .768-.224 1.36-.672 1.776-.448.384-1.024.576-1.728.576s-1.296-.192-1.776-.576c-.448-.416-.672-1.008-.672-1.776v-29.616c0-.768.224-1.344.672-1.728.48-.416 1.072-.624 1.776-.624s1.28.208 1.728.624c.448.384.672.96.672 1.728v18.816l10.944-10.224c.544-.48 1.072-.72 1.584-.72.608 0 1.136.224 1.584.672s.672.976.672 1.584-.272 1.168-.816 1.68l-8.544 7.824 9.408 8.304zm23.078-2.112c.448 0 .816.176 1.104.528s.432.8.432 1.344c0 .928-.576 1.712-1.728 2.352-1.12.64-2.352 1.136-3.696 1.488-1.312.352-2.576.528-3.792.528-3.712 0-6.64-1.072-8.784-3.216-2.144-2.176-3.216-5.136-3.216-8.88 0-2.4.464-4.528 1.392-6.384.96-1.856 2.288-3.296 3.984-4.32 1.728-1.024 3.68-1.536 5.856-1.536 3.136 0 5.616 1.008 7.44 3.024s2.736 4.736 2.736 8.16c0 1.28-.576 1.92-1.728 1.92h-14.832c.32 4.96 2.704 7.44 7.152 7.44 1.184 0 2.208-.16 3.072-.48s1.776-.736 2.736-1.248c.096-.064.352-.192.768-.384.448-.224.816-.336 1.104-.336zm-8.352-14.544c-1.856 0-3.344.592-4.464 1.776s-1.792 2.848-2.016 4.992h12.384c-.096-2.176-.656-3.84-1.68-4.992-.992-1.184-2.4-1.776-4.224-1.776zm27.71-3.456c1.536-.096 2.304.56 2.304 1.968 0 .704-.176 1.232-.528 1.584s-.96.56-1.824.624l-1.44.144c-2.016.192-3.52.896-4.512 2.112-.96 1.216-1.44 2.688-1.44 4.416v10.992c0 .768-.224 1.344-.672 1.728s-1.024.576-1.728.576-1.296-.192-1.776-.576c-.448-.384-.672-.96-.672-1.728V271.4c0-.736.224-1.296.672-1.68.48-.416 1.072-.624 1.776-.624.64 0 1.168.208 1.584.624.448.384.672.928.672 1.632v2.304c.64-1.408 1.568-2.48 2.784-3.216s2.592-1.168 4.128-1.296l.672-.048z"/></g><path d="M641.244 312.704c.096-.256.24-.448.432-.576s.408-.192.648-.192c.304 0 .568.104.792.312.24.192.36.448.36.768 0 .176-.032.336-.096.48l-5.304 14.832c-.112.272-.288.48-.528.624s-.504.216-.792.216c-.272 0-.528-.072-.768-.216s-.408-.352-.504-.624l-4.368-12.384-4.464 12.384c-.096.272-.264.48-.504.624s-.496.216-.768.216c-.288 0-.552-.072-.792-.216-.224-.144-.392-.352-.504-.624l-5.304-14.832c-.064-.144-.096-.304-.096-.48 0-.32.12-.576.36-.768.24-.208.528-.312.864-.312.24 0 .456.064.648.192.208.128.36.32.456.576l4.44 12.768 4.512-12.648c.096-.272.248-.48.456-.624.224-.144.464-.216.72-.216s.488.08.696.24c.208.144.368.352.48.624l4.416 12.744 4.512-12.888zm12.596 13.344c.224 0 .408.088.552.264s.216.4.216.672c0 .464-.288.856-.864 1.176-.56.32-1.176.568-1.848.744-.656.176-1.288.264-1.896.264-1.856 0-3.32-.536-4.392-1.608-1.072-1.088-1.608-2.568-1.608-4.44 0-1.2.232-2.264.696-3.192.48-.928 1.144-1.648 1.992-2.16.864-.512 1.84-.768 2.928-.768 1.568 0 2.808.504 3.72 1.512s1.368 2.368 1.368 4.08c0 .64-.288.96-.864.96h-7.416c.16 2.48 1.352 3.72 3.576 3.72.592 0 1.104-.08 1.536-.24s.888-.368 1.368-.624c.048-.032.176-.096.384-.192.224-.112.408-.168.552-.168zm-4.176-7.272c-.928 0-1.672.296-2.232.888s-.896 1.424-1.008 2.496h6.192c-.048-1.088-.328-1.92-.84-2.496-.496-.592-1.2-.888-2.112-.888zM663.663 317c1.024 0 1.928.248 2.712.744s1.392 1.2 1.824 2.112c.448.912.672 1.976.672 3.192 0 1.2-.224 2.264-.672 3.192-.432.928-1.048 1.648-1.848 2.16-.784.512-1.68.768-2.688.768-.88 0-1.656-.184-2.328-.552-.672-.384-1.184-.928-1.536-1.632v.96c0 .352-.112.64-.336.864-.208.208-.496.312-.864.312s-.664-.104-.888-.312c-.224-.224-.336-.512-.336-.864v-14.832c0-.352.112-.632.336-.84.24-.208.544-.312.912-.312.352 0 .632.104.84.312.224.192.336.456.336.792v6.144c.352-.704.864-1.248 1.536-1.632s1.448-.576 2.328-.576zm-.576 10.248c1.04 0 1.848-.368 2.424-1.104.592-.736.888-1.768.888-3.096 0-1.312-.288-2.32-.864-3.024-.576-.72-1.392-1.08-2.448-1.08s-1.872.36-2.448 1.08c-.56.72-.84 1.744-.84 3.072s.28 2.352.84 3.072c.576.72 1.392 1.08 2.448 1.08zm28.764.24c.208.208.312.44.312.696 0 .272-.104.512-.312.72-.208.192-.448.288-.72.288s-.512-.104-.72-.312l-2.112-2.136c-.736.784-1.568 1.384-2.496 1.8s-1.904.624-2.928.624c-1.072 0-2.032-.184-2.88-.552s-1.512-.888-1.992-1.56c-.464-.688-.696-1.48-.696-2.376 0-1.04.312-1.968.936-2.784s1.584-1.592 2.88-2.328c-.656-.704-1.144-1.352-1.464-1.944-.32-.608-.48-1.24-.48-1.896 0-1.168.408-2.096 1.224-2.784s1.864-1.032 3.144-1.032c1.216 0 2.184.32 2.904.96.72.624 1.08 1.48 1.08 2.568 0 .88-.264 1.664-.792 2.352-.512.672-1.336 1.352-2.472 2.04l3.768 3.816c.512-1.056.824-2.328.936-3.816.016-.336.128-.592.336-.768.224-.192.472-.288.744-.288.288 0 .528.104.72.312.208.192.296.464.264.816-.144 1.984-.656 3.72-1.536 5.208l2.352 2.376zm-8.28-13.824c-.64 0-1.16.192-1.56.576-.384.368-.576.864-.576 1.488 0 .448.12.88.36 1.296.24.4.632.896 1.176 1.488.928-.576 1.576-1.08 1.944-1.512.384-.448.576-.936.576-1.464 0-.56-.176-1.008-.528-1.344-.352-.352-.816-.528-1.392-.528zm-.576 13.608c.736 0 1.44-.16 2.112-.48.688-.32 1.296-.792 1.824-1.416l-4.488-4.488c-.992.592-1.704 1.176-2.136 1.752-.416.56-.624 1.2-.624 1.92 0 .848.296 1.512.888 1.992.608.48 1.416.72 2.424.72zm32.63-15.312c.352 0 .64.12.864.36.224.224.336.52.336.888v14.736c0 .368-.104.656-.312.864-.192.208-.464.312-.816.312-.336 0-.6-.104-.792-.312s-.288-.496-.288-.864v-11.16l-4.704 8.952c-.304.56-.696.84-1.176.84s-.872-.28-1.176-.84l-4.728-8.856v11.064c0 .368-.096.656-.288.864s-.464.312-.816.312c-.336 0-.608-.104-.816-.312-.192-.224-.288-.512-.288-.864v-14.736c0-.368.112-.664.336-.888.224-.24.512-.36.864-.36.496 0 .896.288 1.2.864l5.736 10.968 5.688-10.968c.304-.576.696-.864 1.176-.864zm9.956 17.208c-1.152 0-2.168-.248-3.048-.744-.864-.496-1.536-1.2-2.016-2.112-.464-.928-.696-2-.696-3.216 0-1.232.232-2.304.696-3.216.48-.928 1.152-1.64 2.016-2.136.88-.496 1.896-.744 3.048-.744s2.16.248 3.024.744c.88.496 1.552 1.208 2.016 2.136.48.912.72 1.984.72 3.216 0 1.216-.24 2.288-.72 3.216-.464.912-1.136 1.616-2.016 2.112-.864.496-1.872.744-3.024.744zm0-1.92c1.072 0 1.888-.352 2.448-1.056.576-.704.864-1.736.864-3.096 0-1.344-.288-2.368-.864-3.072-.576-.72-1.392-1.08-2.448-1.08s-1.872.36-2.448 1.08c-.576.704-.864 1.728-.864 3.072 0 1.36.28 2.392.84 3.096.576.704 1.4 1.056 2.472 1.056zM740.327 317c1.024 0 1.928.248 2.712.744s1.392 1.2 1.824 2.112c.448.912.672 1.976.672 3.192 0 1.2-.224 2.264-.672 3.192-.432.928-1.048 1.648-1.848 2.16-.784.512-1.68.768-2.688.768-.88 0-1.656-.184-2.328-.552-.672-.384-1.184-.928-1.536-1.632v.96c0 .352-.112.64-.336.864-.208.208-.496.312-.864.312s-.664-.104-.888-.312c-.224-.224-.336-.512-.336-.864v-14.832c0-.352.112-.632.336-.84.24-.208.544-.312.912-.312.352 0 .632.104.84.312.224.192.336.456.336.792v6.144c.352-.704.864-1.248 1.536-1.632s1.448-.576 2.328-.576zm-.576 10.248c1.04 0 1.848-.368 2.424-1.104.592-.736.888-1.768.888-3.096 0-1.312-.288-2.32-.864-3.024-.576-.72-1.392-1.08-2.448-1.08s-1.872.36-2.448 1.08c-.56.72-.84 1.744-.84 3.072s.28 2.352.84 3.072c.576.72 1.392 1.08 2.448 1.08zm9.692 1.872c-.352 0-.648-.096-.888-.288-.224-.192-.336-.48-.336-.864v-9.744c0-.384.112-.672.336-.864.24-.208.536-.312.888-.312s.64.104.864.312c.224.192.336.48.336.864v9.744c0 .384-.112.672-.336.864s-.512.288-.864.288zm0-14.424c-.464 0-.832-.128-1.104-.384s-.408-.592-.408-1.008.136-.744.408-.984c.272-.256.64-.384 1.104-.384.448 0 .808.128 1.08.384.288.24.432.568.432.984s-.136.752-.408 1.008-.64.384-1.104.384zm5.813 14.424c-.352 0-.648-.096-.888-.288-.224-.192-.336-.48-.336-.864v-14.832c0-.384.112-.672.336-.864.24-.208.536-.312.888-.312s.64.104.864.312c.224.192.336.48.336.864v14.832c0 .384-.112.672-.336.864s-.512.288-.864.288zm13.756-3.072c.224 0 .408.088.552.264s.216.4.216.672c0 .464-.288.856-.864 1.176-.56.32-1.176.568-1.848.744-.656.176-1.288.264-1.896.264-1.856 0-3.32-.536-4.392-1.608-1.072-1.088-1.608-2.568-1.608-4.44 0-1.2.232-2.264.696-3.192.48-.928 1.144-1.648 1.992-2.16.864-.512 1.84-.768 2.928-.768 1.568 0 2.808.504 3.72 1.512s1.368 2.368 1.368 4.08c0 .64-.288.96-.864.96h-7.416c.16 2.48 1.352 3.72 3.576 3.72.592 0 1.104-.08 1.536-.24s.888-.368 1.368-.624c.048-.032.176-.096.384-.192.224-.112.408-.168.552-.168zm-4.176-7.272c-.928 0-1.672.296-2.232.888s-.896 1.424-1.008 2.496h6.192c-.048-1.088-.328-1.92-.84-2.496-.496-.592-1.2-.888-2.112-.888zm29.255 8.784c.08.192.12.352.12.48 0 .304-.128.56-.384.768-.24.208-.512.312-.816.312-.208 0-.408-.056-.6-.168-.176-.128-.312-.304-.408-.528l-1.584-3.6h-8.784l-1.584 3.6c-.096.224-.24.4-.432.528-.192.112-.392.168-.6.168-.32 0-.608-.104-.864-.312-.24-.208-.36-.464-.36-.768 0-.128.04-.288.12-.48l6.768-14.808c.112-.256.288-.456.528-.6.256-.144.52-.216.792-.216s.528.072.768.216c.256.144.44.344.552.6l6.768 14.808zm-11.568-4.704h7.032l-3.528-7.944-3.504 7.944zM802.788 317c1.008 0 1.904.256 2.688.768.8.512 1.416 1.232 1.848 2.16.448.928.672 2 .672 3.216 0 1.2-.216 2.256-.648 3.168s-1.048 1.616-1.848 2.112c-.784.496-1.688.744-2.712.744-.88 0-1.656-.184-2.328-.552-.672-.384-1.184-.928-1.536-1.632v5.352c0 .336-.112.6-.336.792-.208.208-.488.312-.84.312-.368 0-.672-.104-.912-.312-.224-.208-.336-.488-.336-.84v-14.064c0-.352.112-.632.336-.84.224-.224.52-.336.888-.336.352 0 .64.112.864.336.224.208.336.488.336.84v.984c.352-.704.864-1.248 1.536-1.632s1.448-.576 2.328-.576zm-.576 10.248c1.056 0 1.872-.352 2.448-1.056.576-.72.864-1.736.864-3.048 0-1.328-.296-2.36-.888-3.096-.576-.736-1.384-1.104-2.424-1.104-1.056 0-1.872.36-2.448 1.08-.56.72-.84 1.744-.84 3.072s.28 2.352.84 3.072c.576.72 1.392 1.08 2.448 1.08zM816.968 317c1.008 0 1.904.256 2.688.768.8.512 1.416 1.232 1.848 2.16.448.928.672 2 .672 3.216 0 1.2-.216 2.256-.648 3.168s-1.048 1.616-1.848 2.112c-.784.496-1.688.744-2.712.744-.88 0-1.656-.184-2.328-.552-.672-.384-1.184-.928-1.536-1.632v5.352c0 .336-.112.6-.336.792-.208.208-.488.312-.84.312-.368 0-.672-.104-.912-.312-.224-.208-.336-.488-.336-.84v-14.064c0-.352.112-.632.336-.84.224-.224.52-.336.888-.336.352 0 .64.112.864.336.224.208.336.488.336.84v.984c.352-.704.864-1.248 1.536-1.632s1.448-.576 2.328-.576zm-.576 10.248c1.056 0 1.872-.352 2.448-1.056.576-.72.864-1.736.864-3.048 0-1.328-.296-2.36-.888-3.096-.576-.736-1.384-1.104-2.424-1.104-1.056 0-1.872.36-2.448 1.08-.56.72-.84 1.744-.84 3.072s.28 2.352.84 3.072c.576.72 1.392 1.08 2.448 1.08z" fill="#97a6ba"/><path d="M588.943 499.16c-.405 0-.736-.117-.992-.352-.235-.256-.352-.587-.352-.992V478.68h-6.88c-.384 0-.683-.096-.896-.288s-.32-.469-.32-.832.107-.64.32-.832.512-.288.896-.288h16.416c.384 0 .683.096.896.288s.32.469.32.832-.107.64-.32.832-.512.288-.896.288h-6.88v19.136c0 .405-.117.736-.352.992-.235.235-.555.352-.96.352zm15.984.064c-1.472 0-2.774-.331-3.904-.992-1.11-.661-1.974-1.6-2.592-2.816-.598-1.237-.896-2.667-.896-4.288s.298-3.04.896-4.256c.618-1.237 1.482-2.187 2.592-2.848 1.13-.661 2.432-.992 3.904-.992s2.773.331 3.904.992 1.994 1.611 2.592 2.848c.618 1.216.928 2.635.928 4.256s-.31 3.051-.928 4.288c-.598 1.216-1.462 2.155-2.592 2.816s-2.432.992-3.904.992zm0-2.144c1.536 0 2.709-.501 3.52-1.504.832-1.024 1.248-2.507 1.248-4.448 0-1.899-.416-3.36-1.248-4.384-.832-1.045-2.006-1.568-3.52-1.568s-2.688.523-3.52 1.568c-.832 1.024-1.248 2.485-1.248 4.384 0 1.92.405 3.392 1.216 4.416.832 1.024 2.016 1.536 3.552 1.536zm26.736.032c.746.064 1.12.405 1.12 1.024 0 .363-.139.64-.416.832-.256.171-.651.235-1.184.192l-.864-.064c-1.707-.128-2.966-.64-3.776-1.536s-1.216-2.251-1.216-4.064v-8.032h-2.144c-.363 0-.651-.085-.864-.256-.192-.192-.289-.437-.289-.736 0-.32.097-.576.289-.768.213-.192.501-.288.864-.288h2.144V479.8c0-.405.117-.715.352-.928.234-.235.554-.352.96-.352.384 0 .693.117.928.352.234.213.352.523.352.928v3.616h3.551c.342 0 .609.096.801.288.213.192.32.448.32.768 0 .299-.107.544-.32.736-.192.171-.459.256-.801.256h-3.551v8.16c0 1.173.234 2.027.704 2.56.49.512 1.216.8 2.176.864l.864.064zm11.387-14.016c.896-.064 1.344.299 1.344 1.088 0 .341-.096.619-.288.832-.192.192-.523.309-.992.352l-.96.096c-1.43.128-2.496.64-3.2 1.536-.683.875-1.024 1.909-1.024 3.104v7.776c0 .427-.118.747-.352.96s-.544.32-.928.32-.704-.107-.96-.32c-.235-.235-.352-.555-.352-.96v-13.504c0-.405.128-.715.384-.928.256-.235.565-.352.928-.352.341 0 .629.117.864.352.234.213.352.512.352.896v1.792c.448-.939 1.077-1.653 1.888-2.144.832-.491 1.781-.779 2.848-.864l.448-.032zm9.812-.064c3.904 0 5.856 2.048 5.856 6.144v8.704c0 .384-.118.693-.352.928-.214.235-.512.352-.896.352s-.694-.117-.928-.352-.352-.544-.352-.928v-1.536c-.406.917-1.024 1.632-1.856 2.144-.832.491-1.792.736-2.88.736-1.003 0-1.931-.203-2.784-.608-.832-.405-1.494-.971-1.984-1.696s-.736-1.525-.736-2.4c0-1.173.298-2.08.896-2.72.597-.661 1.578-1.131 2.944-1.408 1.365-.299 3.264-.448 5.696-.448h.704v-1.056c0-1.28-.267-2.219-.8-2.816-.512-.597-1.355-.896-2.528-.896-1.451 0-2.923.395-4.416 1.184-.576.363-.982.544-1.216.544-.256 0-.47-.096-.64-.288s-.256-.437-.256-.736.085-.555.256-.768c.192-.235.49-.469.896-.704.746-.427 1.589-.757 2.528-.992.96-.256 1.909-.384 2.848-.384zm-1.056 14.144c1.28 0 2.325-.427 3.136-1.28.832-.875 1.248-1.995 1.248-3.36v-.928h-.576c-1.878 0-3.307.085-4.288.256-.982.149-1.686.416-2.112.8-.406.363-.608.907-.608 1.632 0 .832.298 1.525.896 2.08.618.533 1.386.8 2.304.8zm18.089 2.048c-1.451 0-2.742-.331-3.872-.992-1.11-.661-1.974-1.6-2.592-2.816-.598-1.216-.896-2.624-.896-4.224s.309-3.019.928-4.256c.64-1.237 1.525-2.197 2.656-2.88s2.432-1.024 3.904-1.024c.81 0 1.61.117 2.4.352.81.213 1.514.533 2.112.96.384.256.65.512.8.768.17.235.256.501.256.8s-.086.544-.256.736c-.15.192-.352.288-.608.288-.15 0-.31-.043-.48-.128s-.32-.171-.448-.256c-.107-.085-.182-.139-.224-.16-.555-.363-1.088-.651-1.6-.864-.491-.213-1.099-.32-1.824-.32-1.558 0-2.774.533-3.648 1.6-.854 1.045-1.28 2.507-1.28 4.384s.426 3.328 1.28 4.352c.874 1.024 2.09 1.536 3.648 1.536.725 0 1.344-.107 1.856-.32.533-.213 1.066-.501 1.6-.864l.672-.384c.213-.107.394-.16.544-.16.234 0 .426.096.576.288.17.192.256.437.256.736 0 .277-.075.533-.224.768-.15.213-.427.459-.832.736-.598.405-1.323.736-2.176.992-.832.235-1.675.352-2.528.352zm21.328-2.272c.341.32.512.661.512 1.024 0 .32-.117.597-.352.832-.213.235-.48.352-.8.352-.277 0-.565-.128-.864-.384l-8.352-7.2v6.304c0 .405-.128.725-.384.96-.235.213-.533.32-.896.32-.384 0-.704-.107-.96-.32-.235-.235-.352-.555-.352-.96v-20.32c0-.405.117-.715.352-.928.256-.235.576-.352.96-.352.363 0 .661.117.896.352.256.213.384.523.384.928v12.992l7.648-7.008c.256-.256.544-.384.864-.384s.597.117.832.352.352.512.352.832c0 .363-.149.683-.448.96l-6.304 5.632 6.912 6.016zm19.002.16c.747.064 1.12.405 1.12 1.024 0 .363-.139.64-.416.832-.256.171-.651.235-1.184.192l-.864-.064c-1.707-.128-2.965-.64-3.776-1.536s-1.216-2.251-1.216-4.064v-8.032h-2.144c-.363 0-.651-.085-.864-.256-.192-.192-.288-.437-.288-.736 0-.32.096-.576.288-.768.213-.192.501-.288.864-.288h2.144V479.8c0-.405.117-.715.352-.928.235-.235.555-.352.96-.352.384 0 .693.117.928.352.235.213.352.523.352.928v3.616h3.552c.341 0 .608.096.8.288.213.192.32.448.32.768 0 .299-.107.544-.32.736-.192.171-.459.256-.8.256h-3.552v8.16c0 1.173.235 2.027.704 2.56.491.512 1.216.8 2.176.864l.864.064zm11.547-14.08c1.835 0 3.221.523 4.16 1.568.939 1.024 1.408 2.56 1.408 4.608v8.672c0 .405-.117.725-.352.96-.235.213-.544.32-.928.32-.405 0-.725-.107-.96-.32-.235-.235-.352-.555-.352-.96v-8.608c0-1.387-.288-2.411-.864-3.072-.555-.661-1.451-.992-2.688-.992-1.429 0-2.571.437-3.424 1.312s-1.28 2.059-1.28 3.552v7.808c0 .405-.117.725-.352.96-.213.213-.523.32-.928.32s-.725-.107-.96-.32c-.235-.235-.352-.555-.352-.96v-20.352c0-.363.117-.661.352-.896.256-.235.576-.352.96-.352.405 0 .715.117.928.352.235.213.352.512.352.896v8.384c.512-.939 1.227-1.653 2.144-2.144s1.963-.736 3.136-.736zm22.38 12.352c.234 0 .437.096.608.288s.256.437.256.736c0 .533-.374 1.024-1.12 1.472-.768.448-1.579.789-2.432 1.024-.854.213-1.686.32-2.496.32-2.411 0-4.32-.715-5.728-2.144-1.387-1.429-2.08-3.403-2.08-5.92 0-1.6.309-3.008.928-4.224.618-1.237 1.482-2.197 2.592-2.88 1.13-.683 2.41-1.024 3.84-1.024 2.026 0 3.637.661 4.832 1.984s1.792 3.115 1.792 5.376c0 .427-.086.736-.256.928s-.448.288-.832.288h-10.304c.192 3.669 1.93 5.504 5.216 5.504.832 0 1.546-.107 2.144-.32.597-.235 1.237-.544 1.92-.928.554-.32.928-.48 1.12-.48zm-5.6-10.336c-1.366 0-2.464.427-3.296 1.28-.811.853-1.291 2.059-1.44 3.616h9.056c-.043-1.579-.438-2.784-1.184-3.616-.747-.853-1.792-1.28-3.136-1.28zm11.723 14.112c-.384 0-.704-.107-.96-.32-.235-.235-.352-.555-.352-.96v-13.504c0-.405.117-.715.352-.928.256-.235.576-.352.96-.352s.693.117.928.352c.234.213.352.523.352.928v13.504c0 .427-.118.747-.352.96s-.544.32-.928.32zm0-19.424c-.512 0-.928-.149-1.248-.448s-.48-.693-.48-1.184c0-.469.16-.853.48-1.152s.736-.448 1.248-.448.928.149 1.248.448.48.683.48 1.152c0 .491-.16.885-.48 1.184s-.736.448-1.248.448zm13.837 3.36c.896-.064 1.344.299 1.344 1.088 0 .341-.096.619-.288.832-.192.192-.523.309-.992.352l-.96.096c-1.429.128-2.496.64-3.2 1.536-.683.875-1.024 1.909-1.024 3.104v7.776c0 .427-.117.747-.352.96s-.544.32-.928.32-.704-.107-.96-.32c-.235-.235-.352-.555-.352-.96v-13.504c0-.405.128-.715.384-.928.256-.235.565-.352.928-.352.341 0 .629.117.864.352.235.213.352.512.352.896v1.792c.448-.939 1.077-1.653 1.888-2.144.832-.491 1.781-.779 2.848-.864l.448-.032zm23.883 12.288c.235 0 .438.096.608.288s.256.437.256.736c0 .533-.373 1.024-1.12 1.472-.768.448-1.578.789-2.432 1.024-.853.213-1.685.32-2.496.32-2.41 0-4.32-.715-5.728-2.144-1.386-1.429-2.08-3.403-2.08-5.92 0-1.6.31-3.008.928-4.224.619-1.237 1.483-2.197 2.592-2.88 1.131-.683 2.411-1.024 3.84-1.024 2.027 0 3.638.661 4.832 1.984s1.792 3.115 1.792 5.376c0 .427-.085.736-.256.928s-.448.288-.832.288h-10.304c.192 3.669 1.931 5.504 5.216 5.504.832 0 1.547-.107 2.144-.32.598-.235 1.238-.544 1.92-.928.555-.32.928-.48 1.12-.48zm-5.6-10.336c-1.365 0-2.464.427-3.296 1.28-.81.853-1.29 2.059-1.44 3.616h9.056c-.042-1.579-.437-2.784-1.184-3.616-.746-.853-1.792-1.28-3.136-1.28zm16.779-2.016c3.904 0 5.856 2.048 5.856 6.144v8.704c0 .384-.117.693-.352.928-.213.235-.512.352-.896.352s-.693-.117-.928-.352-.352-.544-.352-.928v-1.536c-.405.917-1.024 1.632-1.856 2.144-.832.491-1.792.736-2.88.736-1.002 0-1.93-.203-2.784-.608-.832-.405-1.493-.971-1.984-1.696s-.736-1.525-.736-2.4c0-1.173.299-2.08.896-2.72.598-.661 1.579-1.131 2.944-1.408 1.366-.299 3.264-.448 5.696-.448h.704v-1.056c0-1.28-.266-2.219-.8-2.816-.512-.597-1.354-.896-2.528-.896-1.45 0-2.922.395-4.416 1.184-.576.363-.981.544-1.216.544-.256 0-.469-.096-.64-.288s-.256-.437-.256-.736.086-.555.256-.768c.192-.235.491-.469.896-.704.747-.427 1.59-.757 2.528-.992.96-.256 1.91-.384 2.848-.384zm-1.056 14.144c1.28 0 2.326-.427 3.136-1.28.832-.875 1.248-1.995 1.248-3.36v-.928h-.576c-1.877 0-3.306.085-4.288.256-.981.149-1.685.416-2.112.8-.405.363-.608.907-.608 1.632 0 .832.299 1.525.896 2.08.619.533 1.387.8 2.304.8zm18.857-.064c.747.064 1.12.405 1.12 1.024 0 .363-.139.64-.416.832-.256.171-.651.235-1.184.192l-.864-.064c-1.707-.128-2.965-.64-3.776-1.536s-1.216-2.251-1.216-4.064v-8.032h-2.144c-.363 0-.651-.085-.864-.256-.192-.192-.288-.437-.288-.736 0-.32.096-.576.288-.768.213-.192.501-.288.864-.288h2.144V479.8c0-.405.117-.715.352-.928.235-.235.555-.352.96-.352.384 0 .693.117.928.352.235.213.352.523.352.928v3.616h3.552c.341 0 .608.096.8.288.213.192.32.448.32.768 0 .299-.107.544-.32.736-.192.171-.459.256-.8.256h-3.552v8.16c0 1.173.235 2.027.704 2.56.491.512 1.216.8 2.176.864l.864.064zm4.987 2.048c-.384 0-.704-.107-.96-.32-.235-.235-.352-.555-.352-.96v-13.504c0-.405.117-.715.352-.928.256-.235.576-.352.96-.352s.693.117.928.352c.235.213.352.523.352.928v13.504c0 .427-.117.747-.352.96s-.544.32-.928.32zm0-19.424c-.512 0-.928-.149-1.248-.448s-.48-.693-.48-1.184c0-.469.16-.853.48-1.152s.736-.448 1.248-.448.928.149 1.248.448.48.683.48 1.152c0 .491-.16.885-.48 1.184s-.736.448-1.248.448zm13.966 3.296c3.733 0 5.6 2.059 5.6 6.176v8.672c0 .405-.118.725-.352.96-.214.213-.523.32-.928.32s-.726-.107-.96-.32c-.235-.235-.352-.555-.352-.96v-8.512c0-1.451-.288-2.507-.864-3.168-.555-.661-1.451-.992-2.688-.992-1.43 0-2.571.437-3.424 1.312s-1.28 2.059-1.28 3.552v7.808c0 .405-.118.725-.352.96-.214.213-.523.32-.928.32s-.726-.107-.96-.32c-.235-.235-.352-.555-.352-.96v-13.504c0-.384.117-.693.352-.928s.554-.352.96-.352c.384 0 .682.117.896.352.234.235.352.533.352.896v1.632c.512-.96 1.226-1.685 2.144-2.176.917-.512 1.962-.768 3.136-.768zm22.987.064c.405 0 .725.117.96.352s.352.544.352.928v13.568c0 2.325-.597 4.075-1.792 5.248-1.195 1.195-2.965 1.792-5.312 1.792-2.283 0-4.181-.448-5.696-1.344-.768-.427-1.152-.917-1.152-1.472 0-.299.075-.544.224-.736.171-.192.384-.288.64-.288.213 0 .597.149 1.152.448.747.384 1.483.693 2.208.928s1.589.352 2.592.352c1.515 0 2.656-.405 3.424-1.216.768-.789 1.152-1.952 1.152-3.488v-2.752c-.448 1.003-1.141 1.771-2.08 2.304-.917.533-2.005.8-3.264.8-1.365 0-2.581-.32-3.648-.96-1.045-.64-1.867-1.547-2.464-2.72-.576-1.173-.864-2.528-.864-4.064s.288-2.891.864-4.064c.597-1.173 1.419-2.08 2.464-2.72 1.067-.64 2.283-.96 3.648-.96 1.237 0 2.315.267 3.232.8s1.611 1.291 2.08 2.272v-1.728c0-.384.107-.693.32-.928.235-.235.555-.352.96-.352zm-6.08 13.28c1.493 0 2.667-.491 3.52-1.472.853-1.003 1.28-2.379 1.28-4.128 0-1.728-.427-3.083-1.28-4.064-.832-1.003-2.005-1.504-3.52-1.504s-2.709.501-3.584 1.504c-.853.981-1.28 2.336-1.28 4.064 0 1.749.427 3.125 1.28 4.128.875.981 2.069 1.472 3.584 1.472zm-278.282 22.656c1.835 0 3.222.523 4.16 1.568.939 1.024 1.408 2.56 1.408 4.608v8.672c0 .405-.117.725-.352.96-.234.213-.544.32-.928.32-.405 0-.725-.107-.96-.32-.234-.235-.352-.555-.352-.96v-8.608c0-1.387-.288-2.411-.864-3.072-.554-.661-1.45-.992-2.688-.992-1.429 0-2.57.437-3.424 1.312s-1.28 2.059-1.28 3.552v7.808c0 .405-.117.725-.352.96-.213.213-.522.32-.928.32s-.725-.107-.96-.32c-.234-.235-.352-.555-.352-.96v-20.352c0-.363.118-.661.352-.896.256-.235.576-.352.96-.352.406 0 .715.117.928.352.235.213.352.512.352.896v8.384c.512-.939 1.227-1.653 2.144-2.144s1.963-.736 3.136-.736zm16.684 0c3.904 0 5.856 2.048 5.856 6.144v8.704c0 .384-.118.693-.352.928-.214.235-.512.352-.896.352s-.694-.117-.928-.352-.352-.544-.352-.928v-1.536c-.406.917-1.024 1.632-1.856 2.144-.832.491-1.792.736-2.88.736-1.003 0-1.931-.203-2.784-.608-.832-.405-1.494-.971-1.984-1.696s-.736-1.525-.736-2.4c0-1.173.298-2.08.896-2.72.597-.661 1.578-1.131 2.944-1.408 1.365-.299 3.264-.448 5.696-.448h.704v-1.056c0-1.28-.267-2.219-.8-2.816-.512-.597-1.355-.896-2.528-.896-1.451 0-2.923.395-4.416 1.184-.576.363-.982.544-1.216.544-.256 0-.47-.096-.64-.288s-.256-.437-.256-.736.085-.555.256-.768c.192-.235.49-.469.896-.704.746-.427 1.589-.757 2.528-.992.96-.256 1.909-.384 2.848-.384zm-1.056 14.144c1.28 0 2.325-.427 3.136-1.28.832-.875 1.248-1.995 1.248-3.36v-.928h-.576c-1.878 0-3.307.085-4.288.256-.982.149-1.686.416-2.112.8-.406.363-.608.907-.608 1.632 0 .832.298 1.525.896 2.08.618.533 1.386.8 2.304.8zm19.497-14.144c1.365 0 2.57.331 3.616.992s1.856 1.6 2.432 2.816.864 2.624.864 4.224c0 1.621-.288 3.051-.864 4.288-.576 1.216-1.387 2.165-2.432 2.848s-2.251 1.024-3.616 1.024c-1.216 0-2.283-.267-3.2-.8-.896-.533-1.579-1.291-2.048-2.272v1.728c0 .384-.118.693-.352.928-.214.235-.523.352-.928.352s-.726-.117-.96-.352-.352-.544-.352-.928v-20.352c0-.363.117-.661.352-.896s.554-.352.96-.352.714.117.928.352c.234.213.352.512.352.896v8.576c.469-.981 1.152-1.739 2.048-2.272.917-.533 1.984-.8 3.2-.8zm-.512 14.048c1.514 0 2.688-.523 3.52-1.568.832-1.067 1.248-2.549 1.248-4.448 0-1.856-.416-3.296-1.248-4.32s-2.006-1.536-3.52-1.536-2.688.512-3.52 1.536c-.811 1.024-1.216 2.485-1.216 4.384s.405 3.371 1.216 4.416c.832 1.024 2.005 1.536 3.52 1.536zm12.609 2.08c-.384 0-.704-.107-.96-.32-.235-.235-.352-.555-.352-.96v-13.504c0-.405.117-.715.352-.928.256-.235.576-.352.96-.352s.693.117.928.352c.234.213.352.523.352.928v13.504c0 .427-.118.747-.352.96s-.544.32-.928.32zm0-19.424c-.512 0-.928-.149-1.248-.448s-.48-.693-.48-1.184c0-.469.16-.853.48-1.152s.736-.448 1.248-.448.928.149 1.248.448.48.683.48 1.152c0 .491-.16.885-.48 1.184s-.736.448-1.248.448zm13.325 17.376c.747.064 1.12.405 1.12 1.024 0 .363-.139.64-.416.832-.256.171-.651.235-1.184.192l-.864-.064c-1.707-.128-2.965-.64-3.776-1.536s-1.216-2.251-1.216-4.064v-8.032h-2.144c-.363 0-.651-.085-.864-.256-.192-.192-.288-.437-.288-.736 0-.32.096-.576.288-.768.213-.192.501-.288.864-.288h2.144V515.8c0-.405.117-.715.352-.928.235-.235.555-.352.96-.352.384 0 .693.117.928.352.235.213.352.523.352.928v3.616h3.552c.341 0 .608.096.8.288.213.192.32.448.32.768 0 .299-.107.544-.32.736-.192.171-.459.256-.8.256h-3.552v8.16c0 1.173.235 2.027.704 2.56.491.512 1.216.8 2.176.864l.864.064zm8.923 2.112c-.981 0-1.92-.117-2.816-.352-.875-.235-1.653-.565-2.336-.992-.384-.256-.661-.491-.832-.704-.149-.235-.224-.512-.224-.832 0-.277.075-.501.224-.672.171-.192.384-.288.64-.288s.629.16 1.12.48c.64.384 1.269.693 1.888.928.64.213 1.429.32 2.368.32 1.152 0 2.048-.203 2.688-.608s.96-.992.96-1.76c0-.469-.117-.843-.352-1.12-.235-.299-.64-.555-1.216-.768-.576-.235-1.419-.469-2.528-.704-1.877-.405-3.221-.949-4.032-1.632s-1.216-1.611-1.216-2.784c0-.917.256-1.728.768-2.432s1.216-1.259 2.112-1.664c.917-.405 1.952-.608 3.104-.608.832 0 1.632.117 2.4.352.789.213 1.483.523 2.08.928.725.512 1.088 1.045 1.088 1.6 0 .277-.085.512-.256.704s-.373.288-.608.288c-.256 0-.64-.181-1.152-.544-.597-.384-1.163-.683-1.696-.896s-1.195-.32-1.984-.32c-1.003 0-1.813.224-2.432.672-.597.448-.896 1.045-.896 1.792 0 .469.107.853.32 1.152.235.277.608.533 1.12.768.533.213 1.291.427 2.272.64 1.451.32 2.571.672 3.36 1.056.811.384 1.387.853 1.728 1.408s.512 1.259.512 2.112c0 1.344-.565 2.432-1.696 3.264-1.131.811-2.624 1.216-4.48 1.216zm11.187-3.68c.533 0 .96.213 1.28.64.341.405.512 1.024.512 1.856 0 1.685-.544 3.104-1.632 4.256-.214.235-.459.352-.736.352-.214 0-.406-.085-.576-.256-.171-.149-.256-.331-.256-.544 0-.235.085-.437.256-.608.554-.576.906-1.291 1.056-2.144-.47-.043-.864-.213-1.184-.512-.299-.32-.448-.725-.448-1.216 0-.533.16-.971.48-1.312.341-.341.757-.512 1.248-.512zm20.714-12.512c3.904 0 5.856 2.048 5.856 6.144v8.704c0 .384-.117.693-.352.928-.213.235-.512.352-.896.352s-.693-.117-.928-.352-.352-.544-.352-.928v-1.536c-.405.917-1.024 1.632-1.856 2.144-.832.491-1.792.736-2.88.736-1.002 0-1.93-.203-2.784-.608-.832-.405-1.493-.971-1.984-1.696s-.736-1.525-.736-2.4c0-1.173.299-2.08.896-2.72.598-.661 1.579-1.131 2.944-1.408 1.366-.299 3.264-.448 5.696-.448h.704v-1.056c0-1.28-.266-2.219-.8-2.816-.512-.597-1.354-.896-2.528-.896-1.45 0-2.922.395-4.416 1.184-.576.363-.981.544-1.216.544-.256 0-.469-.096-.64-.288s-.256-.437-.256-.736.086-.555.256-.768c.192-.235.491-.469.896-.704.747-.427 1.59-.757 2.528-.992.96-.256 1.91-.384 2.848-.384zm-1.056 14.144c1.28 0 2.326-.427 3.136-1.28.832-.875 1.248-1.995 1.248-3.36v-.928h-.576c-1.877 0-3.306.085-4.288.256-.981.149-1.685.416-2.112.8-.405.363-.608.907-.608 1.632 0 .832.299 1.525.896 2.08.619.533 1.387.8 2.304.8zm19.497-14.144c3.733 0 5.6 2.059 5.6 6.176v8.672c0 .405-.117.725-.352.96-.213.213-.523.32-.928.32s-.725-.107-.96-.32c-.235-.235-.352-.555-.352-.96v-8.512c0-1.451-.288-2.507-.864-3.168-.555-.661-1.451-.992-2.688-.992-1.429 0-2.571.437-3.424 1.312s-1.28 2.059-1.28 3.552v7.808c0 .405-.117.725-.352.96-.213.213-.523.32-.928.32s-.725-.107-.96-.32c-.235-.235-.352-.555-.352-.96v-13.504c0-.384.117-.693.352-.928s.555-.352.96-.352c.384 0 .683.117.896.352.235.235.352.533.352.896v1.632c.512-.96 1.227-1.685 2.144-2.176.917-.512 1.963-.768 3.136-.768zm22.86-6.752c.405 0 .725.117.96.352s.352.533.352.896v20.352c0 .384-.118.693-.352.928s-.555.352-.96.352-.726-.117-.96-.352c-.214-.235-.32-.544-.32-.928v-1.728c-.47.981-1.163 1.739-2.08 2.272-.896.533-1.952.8-3.168.8-1.366 0-2.571-.341-3.616-1.024s-1.856-1.632-2.432-2.848c-.576-1.237-.864-2.667-.864-4.288 0-1.6.288-3.008.864-4.224s1.386-2.155 2.432-2.816 2.25-.992 3.616-.992c1.216 0 2.272.267 3.168.8.917.533 1.61 1.291 2.08 2.272v-8.576c0-.384.106-.683.32-.896.234-.235.554-.352.96-.352zm-6.016 20.8c1.514 0 2.677-.512 3.488-1.536.832-1.045 1.248-2.517 1.248-4.416s-.416-3.36-1.248-4.384c-.811-1.024-1.974-1.536-3.488-1.536s-2.699.512-3.552 1.536c-.832 1.024-1.248 2.464-1.248 4.32 0 1.899.416 3.381 1.248 4.448.853 1.045 2.037 1.568 3.552 1.568zm37.723-14.048c3.456 0 5.184 2.059 5.184 6.176v8.672c0 .405-.118.725-.352.96-.235.213-.544.32-.928.32s-.704-.107-.96-.32c-.235-.235-.352-.555-.352-.96v-8.608c0-1.429-.256-2.464-.768-3.104s-1.312-.96-2.4-.96c-1.302 0-2.326.437-3.072 1.312s-1.12 2.059-1.12 3.552v7.808c0 .405-.128.725-.384.96-.235.213-.544.32-.928.32s-.694-.107-.928-.32c-.235-.235-.352-.555-.352-.96v-8.608c0-1.429-.256-2.464-.768-3.104s-1.323-.96-2.432-.96c-1.28 0-2.304.437-3.072 1.312-.747.875-1.12 2.059-1.12 3.552v7.808c0 .405-.118.725-.352.96-.235.213-.544.32-.928.32s-.704-.107-.96-.32c-.235-.235-.352-.555-.352-.96v-13.504c0-.384.117-.693.352-.928.256-.235.576-.352.96-.352.362 0 .661.117.896.352.234.213.352.512.352.896v1.536c.469-.917 1.12-1.621 1.952-2.112s1.792-.736 2.88-.736c2.432 0 4.021 1.024 4.768 3.072.448-.939 1.13-1.685 2.048-2.24s1.962-.832 3.136-.832zm16.274 0c3.904 0 5.856 2.048 5.856 6.144v8.704c0 .384-.118.693-.352.928-.214.235-.512.352-.896.352s-.694-.117-.928-.352-.352-.544-.352-.928v-1.536c-.406.917-1.024 1.632-1.856 2.144-.832.491-1.792.736-2.88.736-1.003 0-1.931-.203-2.784-.608-.832-.405-1.494-.971-1.984-1.696s-.736-1.525-.736-2.4c0-1.173.298-2.08.896-2.72.597-.661 1.578-1.131 2.944-1.408 1.365-.299 3.264-.448 5.696-.448h.704v-1.056c0-1.28-.267-2.219-.8-2.816-.512-.597-1.355-.896-2.528-.896-1.451 0-2.923.395-4.416 1.184-.576.363-.982.544-1.216.544-.256 0-.47-.096-.64-.288s-.256-.437-.256-.736.085-.555.256-.768c.192-.235.49-.469.896-.704.746-.427 1.589-.757 2.528-.992.96-.256 1.909-.384 2.848-.384zm-1.056 14.144c1.28 0 2.325-.427 3.136-1.28.832-.875 1.248-1.995 1.248-3.36v-.928h-.576c-1.878 0-3.307.085-4.288.256-.982.149-1.686.416-2.112.8-.406.363-.608.907-.608 1.632 0 .832.298 1.525.896 2.08.618.533 1.386.8 2.304.8zm12.968 1.984c-.384 0-.704-.107-.96-.32-.234-.235-.352-.555-.352-.96v-13.504c0-.405.118-.715.352-.928.256-.235.576-.352.96-.352s.694.117.928.352c.235.213.352.523.352.928v13.504c0 .427-.117.747-.352.96s-.544.32-.928.32zm0-19.424c-.512 0-.928-.149-1.248-.448s-.48-.693-.48-1.184c0-.469.16-.853.48-1.152s.736-.448 1.248-.448.928.149 1.248.448.48.683.48 1.152c0 .491-.16.885-.48 1.184s-.736.448-1.248.448zm13.966 3.296c3.733 0 5.6 2.059 5.6 6.176v8.672c0 .405-.118.725-.352.96-.214.213-.523.32-.928.32s-.726-.107-.96-.32c-.235-.235-.352-.555-.352-.96v-8.512c0-1.451-.288-2.507-.864-3.168-.555-.661-1.451-.992-2.688-.992-1.43 0-2.571.437-3.424 1.312s-1.28 2.059-1.28 3.552v7.808c0 .405-.118.725-.352.96-.214.213-.523.32-.928.32s-.726-.107-.96-.32c-.235-.235-.352-.555-.352-.96v-13.504c0-.384.117-.693.352-.928s.554-.352.96-.352c.384 0 .682.117.896.352.234.235.352.533.352.896v1.632c.512-.96 1.226-1.685 2.144-2.176.917-.512 1.962-.768 3.136-.768zm17.547 14.08c.747.064 1.12.405 1.12 1.024 0 .363-.138.64-.416.832-.256.171-.65.235-1.184.192l-.864-.064c-1.706-.128-2.965-.64-3.776-1.536s-1.216-2.251-1.216-4.064v-8.032h-2.144c-.362 0-.65-.085-.864-.256-.192-.192-.288-.437-.288-.736 0-.32.096-.576.288-.768.214-.192.502-.288.864-.288h2.144V515.8c0-.405.118-.715.352-.928.235-.235.555-.352.96-.352.384 0 .694.117.928.352.235.213.352.523.352.928v3.616h3.552c.342 0 .608.096.8.288.214.192.32.448.32.768 0 .299-.106.544-.32.736-.192.171-.458.256-.8.256h-3.552v8.16c0 1.173.235 2.027.704 2.56.491.512 1.216.8 2.176.864l.864.064zm10.043-14.08c3.904 0 5.856 2.048 5.856 6.144v8.704c0 .384-.117.693-.352.928-.213.235-.512.352-.896.352s-.693-.117-.928-.352-.352-.544-.352-.928v-1.536c-.405.917-1.024 1.632-1.856 2.144-.832.491-1.792.736-2.88.736-1.002 0-1.93-.203-2.784-.608-.832-.405-1.493-.971-1.984-1.696s-.736-1.525-.736-2.4c0-1.173.299-2.08.896-2.72.598-.661 1.579-1.131 2.944-1.408 1.366-.299 3.264-.448 5.696-.448h.704v-1.056c0-1.28-.266-2.219-.8-2.816-.512-.597-1.354-.896-2.528-.896-1.45 0-2.922.395-4.416 1.184-.576.363-.981.544-1.216.544-.256 0-.469-.096-.64-.288s-.256-.437-.256-.736.086-.555.256-.768c.192-.235.491-.469.896-.704.747-.427 1.59-.757 2.528-.992.96-.256 1.91-.384 2.848-.384zm-1.056 14.144c1.28 0 2.326-.427 3.136-1.28.832-.875 1.248-1.995 1.248-3.36v-.928h-.576c-1.877 0-3.306.085-4.288.256-.981.149-1.685.416-2.112.8-.405.363-.608.907-.608 1.632 0 .832.299 1.525.896 2.08.619.533 1.387.8 2.304.8zm12.969 1.984c-.384 0-.704-.107-.96-.32-.235-.235-.352-.555-.352-.96v-13.504c0-.405.117-.715.352-.928.256-.235.576-.352.96-.352s.693.117.928.352c.235.213.352.523.352.928v13.504c0 .427-.117.747-.352.96s-.544.32-.928.32zm0-19.424c-.512 0-.928-.149-1.248-.448s-.48-.693-.48-1.184c0-.469.16-.853.48-1.152s.736-.448 1.248-.448.928.149 1.248.448.48.683.48 1.152c0 .491-.16.885-.48 1.184s-.736.448-1.248.448zm13.966 3.296c3.733 0 5.6 2.059 5.6 6.176v8.672c0 .405-.118.725-.352.96-.214.213-.523.32-.928.32s-.726-.107-.96-.32c-.235-.235-.352-.555-.352-.96v-8.512c0-1.451-.288-2.507-.864-3.168-.555-.661-1.451-.992-2.688-.992-1.43 0-2.571.437-3.424 1.312s-1.28 2.059-1.28 3.552v7.808c0 .405-.118.725-.352.96-.214.213-.523.32-.928.32s-.726-.107-.96-.32c-.235-.235-.352-.555-.352-.96v-13.504c0-.384.117-.693.352-.928s.554-.352.96-.352c.384 0 .682.117.896.352.234.235.352.533.352.896v1.632c.512-.96 1.226-1.685 2.144-2.176.917-.512 1.962-.768 3.136-.768zm24.965 0c3.904 0 5.856 2.048 5.856 6.144v8.704c0 .384-.117.693-.352.928-.213.235-.512.352-.896.352s-.693-.117-.928-.352-.352-.544-.352-.928v-1.536c-.405.917-1.024 1.632-1.856 2.144-.832.491-1.792.736-2.88.736-1.003 0-1.931-.203-2.784-.608-.832-.405-1.493-.971-1.984-1.696s-.736-1.525-.736-2.4c0-1.173.299-2.08.896-2.72.597-.661 1.579-1.131 2.944-1.408 1.365-.299 3.264-.448 5.696-.448h.704v-1.056c0-1.28-.267-2.219-.8-2.816-.512-.597-1.355-.896-2.528-.896-1.451 0-2.923.395-4.416 1.184-.576.363-.981.544-1.216.544-.256 0-.469-.096-.64-.288s-.256-.437-.256-.736.085-.555.256-.768c.192-.235.491-.469.896-.704.747-.427 1.589-.757 2.528-.992.96-.256 1.909-.384 2.848-.384zm-1.056 14.144c1.28 0 2.325-.427 3.136-1.28.832-.875 1.248-1.995 1.248-3.36v-.928h-.576c-1.877 0-3.307.085-4.288.256-.981.149-1.685.416-2.112.8-.405.363-.608.907-.608 1.632 0 .832.299 1.525.896 2.08.619.533 1.387.8 2.304.8zm-222.583 38.048c-1.451 0-2.741-.331-3.872-.992-1.109-.661-1.973-1.6-2.592-2.816-.597-1.216-.896-2.624-.896-4.224s.309-3.019.928-4.256c.64-1.237 1.525-2.197 2.656-2.88s2.432-1.024 3.904-1.024c.811 0 1.611.117 2.4.352.811.213 1.515.533 2.112.96.384.256.651.512.8.768.171.235.256.501.256.8s-.085.544-.256.736c-.149.192-.352.288-.608.288-.149 0-.309-.043-.48-.128s-.32-.171-.448-.256c-.107-.085-.181-.139-.224-.16-.555-.363-1.088-.651-1.6-.864-.491-.213-1.099-.32-1.824-.32-1.557 0-2.773.533-3.648 1.6-.853 1.045-1.28 2.507-1.28 4.384s.427 3.328 1.28 4.352c.875 1.024 2.091 1.536 3.648 1.536.725 0 1.344-.107 1.856-.32.533-.213 1.067-.501 1.6-.864l.672-.384c.213-.107.395-.16.544-.16.235 0 .427.096.576.288.171.192.256.437.256.736 0 .277-.075.533-.224.768-.149.213-.427.459-.832.736-.597.405-1.323.736-2.176.992-.832.235-1.675.352-2.528.352zm20.944-3.84c.235 0 .438.096.608.288s.256.437.256.736c0 .533-.373 1.024-1.12 1.472-.768.448-1.578.789-2.432 1.024-.853.213-1.685.32-2.496.32-2.41 0-4.32-.715-5.728-2.144-1.386-1.429-2.08-3.403-2.08-5.92 0-1.6.31-3.008.928-4.224.619-1.237 1.483-2.197 2.592-2.88 1.131-.683 2.411-1.024 3.84-1.024 2.027 0 3.638.661 4.832 1.984s1.792 3.115 1.792 5.376c0 .427-.085.736-.256.928s-.448.288-.832.288h-10.304c.192 3.669 1.931 5.504 5.216 5.504.832 0 1.547-.107 2.144-.32.598-.235 1.238-.544 1.92-.928.555-.32.928-.48 1.12-.48zm-5.6-10.336c-1.365 0-2.464.427-3.296 1.28-.81.853-1.29 2.059-1.44 3.616h9.056c-.042-1.579-.437-2.784-1.184-3.616-.746-.853-1.792-1.28-3.136-1.28zm18.123-1.952c.896-.064 1.344.299 1.344 1.088 0 .341-.096.619-.288.832-.192.192-.522.309-.992.352l-.96.096c-1.429.128-2.496.64-3.2 1.536-.682.875-1.024 1.909-1.024 3.104v7.776c0 .427-.117.747-.352.96s-.544.32-.928.32-.704-.107-.96-.32c-.234-.235-.352-.555-.352-.96v-13.504c0-.405.128-.715.384-.928.256-.235.566-.352.928-.352.342 0 .63.117.864.352.235.213.352.512.352.896v1.792c.448-.939 1.078-1.653 1.888-2.144.832-.491 1.782-.779 2.848-.864l.448-.032zm12.02 14.016c.746.064 1.12.405 1.12 1.024 0 .363-.139.64-.416.832-.256.171-.651.235-1.184.192l-.864-.064c-1.707-.128-2.966-.64-3.776-1.536s-1.216-2.251-1.216-4.064v-8.032h-2.144c-.363 0-.651-.085-.864-.256-.192-.192-.288-.437-.288-.736 0-.32.096-.576.288-.768.213-.192.501-.288.864-.288h2.144V551.8c0-.405.117-.715.352-.928.234-.235.554-.352.96-.352.384 0 .693.117.928.352.234.213.352.523.352.928v3.616h3.552c.341 0 .608.096.8.288.213.192.32.448.32.768 0 .299-.107.544-.32.736-.192.171-.459.256-.8.256h-3.552v8.16c0 1.173.234 2.027.704 2.56.49.512 1.216.8 2.176.864l.864.064zm10.043-14.08c3.904 0 5.856 2.048 5.856 6.144v8.704c0 .384-.118.693-.352.928-.214.235-.512.352-.896.352s-.694-.117-.928-.352-.352-.544-.352-.928v-1.536c-.406.917-1.024 1.632-1.856 2.144-.832.491-1.792.736-2.88.736-1.003 0-1.931-.203-2.784-.608-.832-.405-1.494-.971-1.984-1.696s-.736-1.525-.736-2.4c0-1.173.298-2.08.896-2.72.597-.661 1.578-1.131 2.944-1.408 1.365-.299 3.264-.448 5.696-.448h.704v-1.056c0-1.28-.267-2.219-.8-2.816-.512-.597-1.355-.896-2.528-.896-1.451 0-2.923.395-4.416 1.184-.576.363-.982.544-1.216.544-.256 0-.47-.096-.64-.288s-.256-.437-.256-.736.085-.555.256-.768c.192-.235.49-.469.896-.704.746-.427 1.589-.757 2.528-.992.96-.256 1.909-.384 2.848-.384zm-1.056 14.144c1.28 0 2.325-.427 3.136-1.28.832-.875 1.248-1.995 1.248-3.36v-.928h-.576c-1.878 0-3.307.085-4.288.256-.982.149-1.686.416-2.112.8-.406.363-.608.907-.608 1.632 0 .832.298 1.525.896 2.08.618.533 1.386.8 2.304.8zm12.968 1.984c-.384 0-.704-.107-.96-.32-.234-.235-.352-.555-.352-.96v-13.504c0-.405.118-.715.352-.928.256-.235.576-.352.96-.352s.694.117.928.352c.235.213.352.523.352.928v13.504c0 .427-.117.747-.352.96s-.544.32-.928.32zm0-19.424c-.512 0-.928-.149-1.248-.448s-.48-.693-.48-1.184c0-.469.16-.853.48-1.152s.736-.448 1.248-.448.928.149 1.248.448.48.683.48 1.152c0 .491-.16.885-.48 1.184s-.736.448-1.248.448zm13.966 3.296c3.733 0 5.6 2.059 5.6 6.176v8.672c0 .405-.117.725-.352.96-.213.213-.523.32-.928.32s-.725-.107-.96-.32c-.235-.235-.352-.555-.352-.96v-8.512c0-1.451-.288-2.507-.864-3.168-.555-.661-1.451-.992-2.688-.992-1.429 0-2.571.437-3.424 1.312s-1.28 2.059-1.28 3.552v7.808c0 .405-.117.725-.352.96-.213.213-.523.32-.928.32s-.725-.107-.96-.32c-.235-.235-.352-.555-.352-.96v-13.504c0-.384.117-.693.352-.928s.555-.352.96-.352c.384 0 .683.117.896.352.235.235.352.533.352.896v1.632c.512-.96 1.227-1.685 2.144-2.176.917-.512 1.963-.768 3.136-.768zm31.109-6.752c.406 0 .726.117.96.352s.352.533.352.896v20.352c0 .384-.117.693-.352.928s-.554.352-.96.352-.725-.117-.96-.352c-.213-.235-.32-.544-.32-.928v-1.728c-.469.981-1.162 1.739-2.08 2.272-.896.533-1.952.8-3.168.8-1.365 0-2.57-.341-3.616-1.024s-1.856-1.632-2.432-2.848c-.576-1.237-.864-2.667-.864-4.288 0-1.6.288-3.008.864-4.224s1.387-2.155 2.432-2.816 2.251-.992 3.616-.992c1.216 0 2.272.267 3.168.8.918.533 1.611 1.291 2.08 2.272v-8.576c0-.384.107-.683.32-.896.235-.235.555-.352.96-.352zm-6.016 20.8c1.515 0 2.678-.512 3.488-1.536.832-1.045 1.248-2.517 1.248-4.416s-.416-3.36-1.248-4.384c-.81-1.024-1.973-1.536-3.488-1.536s-2.698.512-3.552 1.536c-.832 1.024-1.248 2.464-1.248 4.32 0 1.899.416 3.381 1.248 4.448.854 1.045 2.038 1.568 3.552 1.568zm13.441 2.08c-.384 0-.704-.107-.96-.32-.234-.235-.352-.555-.352-.96v-13.504c0-.405.118-.715.352-.928.256-.235.576-.352.96-.352s.694.117.928.352c.235.213.352.523.352.928v13.504c0 .427-.117.747-.352.96s-.544.32-.928.32zm0-19.424c-.512 0-.928-.149-1.248-.448s-.48-.693-.48-1.184c0-.469.16-.853.48-1.152s.736-.448 1.248-.448.928.149 1.248.448.48.683.48 1.152c0 .491-.16.885-.48 1.184s-.736.448-1.248.448zm18.19 15.648c.235 0 .437.096.608.288s.256.437.256.736c0 .533-.373 1.024-1.12 1.472-.768.448-1.579.789-2.432 1.024-.853.213-1.685.32-2.496.32-2.411 0-4.32-.715-5.728-2.144-1.387-1.429-2.08-3.403-2.08-5.92 0-1.6.309-3.008.928-4.224.619-1.237 1.483-2.197 2.592-2.88 1.131-.683 2.411-1.024 3.84-1.024 2.027 0 3.637.661 4.832 1.984s1.792 3.115 1.792 5.376c0 .427-.085.736-.256.928s-.448.288-.832.288h-10.304c.192 3.669 1.931 5.504 5.216 5.504.832 0 1.547-.107 2.144-.32.597-.235 1.237-.544 1.92-.928.555-.32.928-.48 1.12-.48zm-5.6-10.336c-1.365 0-2.464.427-3.296 1.28-.811.853-1.291 2.059-1.44 3.616h9.056c-.043-1.579-.437-2.784-1.184-3.616-.747-.853-1.792-1.28-3.136-1.28zm17.517 12.064c.747.064 1.12.405 1.12 1.024 0 .363-.139.64-.416.832-.256.171-.651.235-1.184.192l-.864-.064c-1.707-.128-2.965-.64-3.776-1.536s-1.216-2.251-1.216-4.064v-8.032h-2.144c-.363 0-.651-.085-.864-.256-.192-.192-.288-.437-.288-.736 0-.32.096-.576.288-.768.213-.192.501-.288.864-.288h2.144V551.8c0-.405.117-.715.352-.928.235-.235.555-.352.96-.352.384 0 .693.117.928.352.235.213.352.523.352.928v3.616h3.552c.341 0 .608.096.8.288.213.192.32.448.32.768 0 .299-.107.544-.32.736-.192.171-.459.256-.8.256h-3.552v8.16c0 1.173.235 2.027.704 2.56.491.512 1.216.8 2.176.864l.864.064zm5.393 2.048c-.512 0-.939-.16-1.28-.48-.342-.341-.512-.779-.512-1.312s.17-.971.512-1.312.768-.512 1.28-.512c.49 0 .896.171 1.216.512.341.341.512.779.512 1.312s-.171.971-.512 1.312c-.32.32-.726.48-1.216.48z" fill="#64748b"/><g stroke="#def7ec" stroke-width="10" stroke-linecap="round" stroke-linejoin="round"><path d="M1019 88v25"/><path d="M1007 100h25M363 408v25"/><path d="M351 420h25"/></g><g clip-path="url(#C)"><path d="M745.524 137.162s-.436-8.432 6.113-11.946l-1.56-1.588s-6.773 2.46-6.773 13.534" fill="#ffd600"/><g fill="#fff"><path d="M677.518 113.397h-8v23.779h-4.6v-23.779H657v-3.893h20.476l.042 3.893zm27.476 23.765h-5.368l-4.413-7.406c-.349-.607-.738-1.189-1.166-1.743-.337-.437-.723-.833-1.152-1.181-.381-.301-.815-.53-1.279-.675-.507-.146-1.032-.217-1.56-.211h-1.855v11.244h-4.625v-27.7h9.107c1.211-.011 2.417.145 3.584.464 1.018.286 1.972.762 2.811 1.405.806.619 1.457 1.418 1.9 2.333.478 1.024.713 2.144.689 3.274.01.913-.138 1.821-.436 2.684-.277.795-.696 1.533-1.237 2.178s-1.196 1.199-1.925 1.63c-.789.467-1.641.817-2.53 1.04v.084c.471.263.909.579 1.307.942l1.068 1.054c.358.388.691.796 1 1.223l1.1 1.588 4.98 7.773zm-16.864-23.891v8.994h3.879c.665.009 1.326-.101 1.953-.323.579-.203 1.11-.524 1.56-.942s.795-.933 1.026-1.5c.253-.636.377-1.316.365-2 .032-.578-.064-1.155-.28-1.692s-.547-1.019-.971-1.414c-1.022-.811-2.31-1.212-3.612-1.124l-3.92.001zm94.973.126h-7.954v23.779h-4.6v-23.779h-7.922v-3.893h20.476v3.893z"/></g><g fill="#ffd600"><path d="M721.844 137.907c-3.282.005-6.432-1.293-8.757-3.61s-3.636-5.461-3.643-8.743v-8.067h2.234v8.067c0 1.337.263 2.661.775 3.897s1.262 2.357 2.207 3.303 2.068 1.695 3.303 2.207 2.56.775 3.897.775 2.661-.263 3.896-.775 2.358-1.262 3.304-2.207 1.695-2.068 2.207-3.303.775-2.56.775-3.897v-8.067h2.122v8.067c-.008 3.268-1.307 6.401-3.615 8.715s-5.437 3.622-8.705 3.638h0z"/><path d="M733.129 157.582c-3.282.005-6.432-1.293-8.757-3.61s-3.636-5.461-3.643-8.743v-8.067h2.192v8.067c0 2.7 1.073 5.29 2.982 7.2s4.5 2.982 7.2 2.982 5.29-1.073 7.2-2.982 2.982-4.5 2.982-7.2v-8.067h2.209v8.067c-.007 3.276-1.313 6.416-3.631 8.731s-5.458 3.618-8.734 3.622zm-22.57-39.013c-.897-.003-1.773-.271-2.518-.772s-1.324-1.21-1.665-2.04-.43-1.741-.253-2.621.61-1.687 1.246-2.32 1.444-1.065 2.324-1.239 1.792-.083 2.62.261 1.537.926 2.035 1.672.764 1.623.764 2.52c0 .597-.118 1.189-.347 1.74s-.564 1.053-.987 1.475-.925.755-1.478.983-1.144.343-1.741.341h0zm0-6.872c-.461.003-.91.142-1.292.4s-.679.623-.853 1.05-.219.895-.127 1.347.315.866.641 1.191.743.545 1.195.634.921.042 1.346-.135.789-.476 1.045-.859.392-.834.392-1.295c0-.308-.06-.612-.178-.896s-.292-.542-.51-.759-.477-.389-.761-.505-.59-.176-.898-.174v.001zm22.57 6.872c-.897-.003-1.772-.271-2.516-.771s-1.324-1.209-1.666-2.037-.431-1.741-.255-2.62.608-1.687 1.241-2.32 1.442-1.066 2.321-1.242 1.791-.087 2.62.255 1.537.921 2.037 1.666.768 1.62.771 2.516c.002.598-.115 1.191-.343 1.745s-.563 1.055-.986 1.479-.926.758-1.479.986-1.147.345-1.745.343zm0-6.872c-.461.003-.91.142-1.292.4s-.679.623-.853 1.05-.219.895-.127 1.347.314.866.641 1.191.743.545 1.195.634.921.042 1.346-.135.789-.476 1.045-.859.392-.834.392-1.295c0-.307-.061-.612-.179-.896s-.291-.542-.509-.759-.477-.388-.762-.504-.589-.176-.897-.174h0z"/></g><g fill="#fff"><path d="M743.135 121.506l.534.492c.309-1.73 1.208-3.299 2.544-4.441-.111-.34-.168-.696-.169-1.054-.016-.602.161-1.193.506-1.686.345-.472.792-.861 1.307-1.138.567-.306 1.179-.52 1.813-.633.672-.131 1.354-.198 2.038-.2 2.148-.091 4.27.504 6.057 1.7v-4.539c-2.014-.776-4.17-1.111-6.324-.984-1.26-.003-2.515.148-3.738.45-1.163.279-2.27.755-3.274 1.405-.943.605-1.736 1.418-2.319 2.375-.6 1.026-.902 2.199-.871 3.387-.029.962.143 1.92.506 2.811.34.761.811 1.456 1.39 2.055h0zm15.249 5.706c-.084-.183-.211-.351-.309-.534-.827 1.682-2.242 3.001-3.977 3.71-.021.494-.16.976-.404 1.406s-.587.796-1.001 1.067c-1.313.736-2.813 1.073-4.315.97-.608-.004-1.215-.061-1.813-.169-.666-.119-1.323-.283-1.967-.492s-1.26-.473-1.855-.787c-.547-.282-1.057-.631-1.518-1.04v4.736c.476.284.986.506 1.518.661.661.2 1.332.364 2.01.492l2.066.309c.569.067 1.141.104 1.714.112 1.327.005 2.651-.131 3.949-.408 1.169-.238 2.286-.68 3.3-1.307 1.36-.943 2.359-2.321 2.831-3.907s.391-3.286-.231-4.82l.002.001z"/></g><path d="M751.202 127.718c2.445 0 4.427-1.969 4.427-4.399s-1.982-4.399-4.427-4.399-4.427 1.97-4.427 4.399 1.982 4.399 4.427 4.399z" fill="#ffd600"/></g><g clip-path="url(#D)"><path d="M946.544 322.864c-.643.181-1.328.139-1.943-.118s-1.126-.713-1.448-1.296c-.373-.626-.881-1.162-1.488-1.569s-1.295-.673-2.018-.782-1.461-.056-2.16.154-1.344.573-1.886 1.061c-.479.46-1.102.741-1.765.798s-1.324-.114-1.875-.485c-.611-.386-1.3-.634-2.017-.727s-1.447-.028-2.137.189-1.323.583-1.857 1.07-.953 1.085-1.23 1.751c-.238.615-.686 1.128-1.266 1.447s-1.254.424-1.904.297c-.7-.095-1.413-.021-2.079.215s-1.265.626-1.749 1.14l16.638 16.57 3.246.203 14.971-15.162c.002-.738-.164-1.467-.485-2.132s-.791-1.249-1.372-1.707-1.259-.778-1.982-.937-1.474-.152-2.194.02h0z" fill="#00b04b"/><path d="M943.867 327.135c1.519 1.514 3.546 2.416 5.692 2.534s4.26-.556 5.938-1.894c.095-.077.173-.173.228-.281s.087-.228.093-.349-.013-.244-.058-.357-.111-.217-.198-.303l-11.042-11.008c-.086-.087-.19-.154-.304-.198s-.236-.064-.358-.058-.241.038-.35.093-.205.133-.282.227c-1.345 1.672-2.024 3.78-1.906 5.919s1.025 4.16 2.547 5.675h0z" fill="#ff5368"/><path d="M944.528 326.476c-1.46-1.458-2.28-3.433-2.28-5.493s.82-4.035 2.28-5.493c-.179-.177-.396-.312-.634-.395s-.492-.112-.743-.085-.493.11-.707.242-.398.31-.535.521c-1.195 1.85-1.718 4.052-1.483 6.239s1.215 4.229 2.777 5.784 3.61 2.532 5.806 2.767 4.405-.287 6.262-1.478c.212-.136.391-.318.524-.532s.215-.455.242-.705-.002-.503-.085-.741-.219-.453-.397-.631c-1.463 1.455-3.446 2.272-5.513 2.272s-4.051-.817-5.514-2.272z" fill="#c5324f"/><path d="M948.277 322.742c.232.231.507.414.81.539s.627.189.955.189.652-.064.954-.189.578-.308.81-.539l-3.529-3.515c-.231.231-.415.505-.541.806s-.19.625-.19.951.065.65.19.952.31.575.541.806h0z" fill="#ff7c8b"/><g fill="#ffcf5d"><path d="M944.16 320.286c-.06.504-.055 1.014.015 1.517.013.125.05.246.111.356s.143.207.242.285.213.134.334.167.249.041.374.023.244-.059.352-.124.202-.15.276-.252.127-.217.155-.339.031-.249.009-.373c-.049-.345-.052-.696-.011-1.042.018-.123.011-.249-.02-.37s-.087-.234-.163-.333-.171-.181-.28-.243-.229-.101-.353-.116-.25-.004-.37.03-.232.093-.33.172-.177.175-.236.285-.095.231-.106.355l.001.002zm3.412 3.897c-.277-.213-.525-.461-.739-.736-.155-.185-.376-.303-.616-.329s-.482.041-.673.188-.319.362-.354.6.022.481.161.678c.312.402.673.763 1.077 1.073.18.139.404.207.631.193s.44-.111.601-.271c.029-.028.055-.059.08-.09.151-.196.218-.443.187-.688s-.159-.467-.355-.618h0z"/></g><path d="M933.868 340.293c-.383-.259-.663-.644-.791-1.087s-.095-.918.092-1.34c.194-.465.283-.967.262-1.471s-.152-.996-.384-1.444-.56-.84-.959-1.149-.863-.528-1.356-.64c-.455-.09-.866-.332-1.164-.687s-.465-.8-.473-1.263c-.024-.507-.161-1.003-.401-1.451s-.577-.838-.987-1.14-.881-.51-1.382-.608-1.016-.084-1.51.041c-.445.128-.921.103-1.35-.071s-.787-.488-1.015-.891c-.269-.44-.635-.813-1.07-1.091s-.928-.454-1.442-.514-1.034-.002-1.522.168-.93.45-1.294.817c-.351.342-.789.582-1.268.693s-.978.091-1.446-.06c-2.026-.466-4.066 1.355-3.211 3.306.254.562.682 1.027 1.221 1.327.459.181.853.498 1.127.907s.417.893.409 1.385c-.064.562-.003 1.131.177 1.668s.477 1.026.869 1.437c.481.49 1.073.858 1.727 1.075l-.827-.511.827.511c.171.064.332.153.477.263 1.356.698 2.772 1.275 4.23 1.727 4.509 1.358 9.162 2.184 13.865 2.459-.062-.472-.22-.925-.467-1.332s-.574-.76-.964-1.034h0z" fill="#4fe267"/><path d="M933.994 325.134c-1.56.001-3.091.418-4.435 1.209s-2.449 1.924-3.203 3.285-1.129 2.897-1.084 4.451.505 3.066 1.335 4.382c4.508.887 9.088 1.358 13.682 1.406 1.189-1.228 1.989-2.778 2.3-4.457s.12-3.41-.55-4.981-1.789-2.91-3.218-3.852-3.104-1.443-4.818-1.443h-.009z" fill="#ff5368"/><g fill="#ff7c8b"><path d="M934.933 338.804v-9.94c-.009-.241-.111-.469-.286-.636s-.407-.261-.649-.261-.474.094-.649.261-.277.395-.286.636v9.94c0 .126.025.25.075.365s.121.219.212.306l1.162.107c.129-.085.235-.2.309-.336s.112-.287.112-.442z"/><path d="M933.993 336.318c1.378 0 2.495-1.113 2.495-2.486s-1.117-2.485-2.495-2.485-2.494 1.112-2.494 2.485 1.117 2.486 2.494 2.486z"/></g><path d="M933.995 324.202c-1.653-.002-3.28.42-4.723 1.224s-2.655 1.964-3.519 3.368-1.353 3.006-1.418 4.652.295 3.281 1.045 4.749l2.563.527c-.97-1.192-1.564-2.643-1.707-4.17s.171-3.064.903-4.414 1.85-2.453 3.211-3.171 2.905-1.017 4.437-.862 2.984.76 4.171 1.737 2.059 2.282 2.503 3.751.44 3.036-.009 4.504-1.325 2.769-2.517 3.741l2.579.042c1.149-1.414 1.873-3.122 2.088-4.929s-.09-3.636-.876-5.277-2.025-3.027-3.57-3.996-3.334-1.483-5.16-1.48l-.001.004z" fill="#c5324f"/><g fill="#ffcf5d"><path d="M930.33 329.196c-.401.315-.759.68-1.066 1.086-.084.097-.147.21-.185.332s-.051.25-.038.378.054.25.117.361.149.208.252.285.22.132.344.161.255.034.381.012.247-.071.354-.141.198-.163.268-.27c.209-.278.453-.528.726-.744.099-.075.182-.169.244-.276s.102-.226.118-.349.006-.247-.027-.366-.09-.231-.167-.328-.173-.178-.281-.238-.228-.098-.352-.112-.248-.002-.368.033-.23.094-.326.172l.006.004zm1.157 7.808c-.273-.217-.518-.467-.727-.746-.072-.101-.164-.188-.271-.253s-.225-.11-.349-.129-.25-.013-.371.017-.236.085-.336.16-.184.169-.246.277-.104.228-.119.351-.006.25.028.37.092.232.17.329c.307.406.665.771 1.066 1.087.194.153.442.223.689.194s.472-.154.625-.348.225-.441.196-.687-.155-.47-.35-.623l-.005.001zm-1.514-2.653c-.045-.345-.045-.695 0-1.041.02-.123.014-.249-.016-.37s-.083-.235-.158-.335-.169-.183-.277-.246-.228-.104-.352-.12-.25-.008-.371.026-.233.09-.331.167-.18.174-.24.283-.098.23-.11.354c-.065.503-.065 1.013 0 1.517.029.224.139.431.309.58s.39.232.617.233c.04 0 .081-.002.121-.007.246-.032.468-.159.62-.354s.219-.442.188-.687h0zm6.528-3.688c.273.216.517.467.726.745.152.19.372.312.614.343s.485-.035.68-.181.324-.362.361-.601-.02-.485-.161-.683c-.307-.405-.665-.77-1.065-1.086-.097-.076-.207-.132-.326-.165s-.242-.043-.364-.029-.24.052-.347.112-.202.14-.278.236-.133.206-.166.324-.044.241-.029.363.052.239.112.346.141.201.237.277l.006-.001zm2.042 5.417c-.198-.149-.447-.213-.692-.179s-.468.165-.617.362c-.21.277-.454.528-.727.744-.098.075-.181.169-.243.276s-.102.226-.118.348-.006.248.027.367.09.231.167.328.172.178.281.238.228.098.352.111.248.003.367-.032.23-.094.327-.172c.4-.315.759-.68 1.066-1.087.074-.098.128-.209.158-.328s.037-.242.019-.363-.059-.238-.122-.343-.146-.197-.245-.27zm1.328-3.003c-.016-.122-.056-.239-.117-.345s-.143-.199-.241-.274-.209-.129-.327-.161-.243-.04-.365-.024-.239.055-.346.117-.2.142-.275.239-.13.208-.162.326-.04.242-.024.364c.045.345.045.695 0 1.04-.031.246.036.493.187.689s.375.323.621.355c.04.005.081.008.121.008.227 0 .447-.083.617-.232s.28-.356.31-.581c.065-.503.065-1.013 0-1.517l.001-.004z"/></g><path d="M968.104 322.829c-.671.216-1.388.246-2.074.086s-1.316-.502-1.821-.991c-.523-.524-1.157-.923-1.857-1.167s-1.445-.326-2.181-.24-1.443.337-2.067.734-1.15.932-1.537 1.561c-.327.578-.84 1.03-1.456 1.281s-1.301.288-1.94.103c-.709-.18-1.448-.2-2.165-.061s-1.395.436-1.983.868-1.072.99-1.418 1.631-.544 1.352-.58 2.079c-.014.662-.254 1.3-.682 1.806s-1.017.852-1.67.979c-.706.157-1.369.467-1.942.906s-1.043.999-1.377 1.639-.523 1.344-.554 2.064.095 1.438.372 2.104c.269.603.316 1.282.133 1.916s-.586 1.184-1.136 1.552c-.452.303-.844.685-1.158 1.128l2.927.05c6.706.102 13.39-.798 19.828-2.668.717-.231 2.011-.724 2.598-.962.667-1.086 1.186-.362 2.885-2.068.561-.584.986-1.284 1.246-2.05s.346-1.58.255-2.384c-.01-.704.195-1.395.589-1.98s.958-1.036 1.617-1.293c.774-.429 1.39-1.095 1.754-1.9 1.232-2.772-1.697-5.378-4.606-4.723z" fill="#4fe267"/><path d="M961.534 338.243c-.083-.951-.371-1.873-.844-2.703s-1.122-1.549-1.899-2.106-1.667-.942-2.608-1.126-1.909-.163-2.841.06-1.804.645-2.557 1.235-1.37 1.335-1.808 2.184-.686 1.783-.729 2.736.122 1.906.483 2.79c3.459-.381 6.874-1.089 10.2-2.113.995-.32 1.855-.64 2.603-.957z" fill="#c5324f"/><path d="M957.818 335.089v-.025c-.005-.763-.311-1.494-.853-2.034s-1.275-.845-2.041-.85h-.025c-1.765.003-3.457.702-4.706 1.946s-1.95 2.929-1.953 4.688v.025c.003.468.12.928.341 1.342s.539.767.927 1.031l5.948-1.062c.74-.621 1.335-1.396 1.743-2.27s.619-1.827.619-2.791h0z" fill="#ff5368"/><g fill="#ff7e40"><path d="M933.495 317.325c-.352-.344-.826-.536-1.319-.533s-.965.198-1.314.545-.545.818-.548 1.309.19.963.536 1.314l2.645 2.634c.173.176.379.316.607.412s.472.146.719.147.492-.046.72-.14.437-.231.612-.405.313-.381.407-.609.142-.471.141-.717-.051-.49-.147-.717-.236-.432-.413-.605l-2.646-2.635zm29.313 9.471h-3.741c-.487.013-.95.215-1.291.563s-.53.815-.53 1.301.19.952.53 1.3.804.551 1.291.564h3.741c.487-.013.95-.215 1.291-.564s.53-.814.53-1.3-.19-.953-.53-1.301-.804-.55-1.291-.563zm-41.537 4.074l-2.65 2.634c-.177.172-.317.378-.413.605s-.147.47-.148.716.047.49.141.718.232.435.407.609.382.312.611.405.473.142.72.14.492-.051.72-.147.434-.235.607-.411l2.645-2.635c.345-.351.537-.823.535-1.314s-.199-.962-.548-1.309-.821-.543-1.313-.546-.967.19-1.319.534l.005.001z"/></g><path d="M967.861 338.147h-26.256l-17.216 18.741v.233c.065 1.581.741 3.076 1.887 4.172s2.672 1.708 4.261 1.708h22.125c1.589.001 3.116-.611 4.262-1.707s1.823-2.591 1.888-4.173v-.233c6.324-3.239 10.928-8.212 12.575-14.007.161-.548.192-1.126.091-1.688s-.331-1.093-.673-1.552-.785-.832-1.296-1.091-1.075-.398-1.648-.403h0z" fill="#b6b0a2"/><path d="M948.881 351.259c.92-1.203 1.487-2.638 1.637-4.143s-.124-3.024-.79-4.383-1.697-2.509-2.98-3.319-2.766-1.249-4.285-1.267h-27.115c-.572.004-1.136.141-1.647.398s-.955.63-1.298 1.087-.575.986-.678 1.548-.074 1.138.084 1.686c1.641 5.799 6.25 10.781 12.583 14.023h13.159c2.182.002 4.335-.499 6.291-1.462s3.662-2.365 4.985-4.094l.054-.074z" fill="#e9e3d5"/></g><g clip-path="url(#E)"><path d="M332.052 124h-8.411c-1.787 0-3.554.379-5.185 1.112s-3.086 1.804-4.272 3.142-2.074 2.91-2.607 4.617-.699 3.505-.485 5.28l2.081 17.279c.166 1.373.829 2.638 1.864 3.555s2.371 1.424 3.754 1.423H336.9c1.383.001 2.719-.505 3.754-1.423s1.698-2.182 1.864-3.555l2.082-17.279c.213-1.774.048-3.574-.485-5.28s-1.422-3.279-2.608-4.616-2.641-2.408-4.271-3.141-3.397-1.113-5.184-1.114h0z" fill="#4fe267"/><path d="M340.221 140.739h-24.754c-.139 0-.276.03-.403.087s-.24.14-.332.244-.162.226-.204.359-.055.272-.039.41l1.594 13.236c.08.662.399 1.271.898 1.713s1.142.687 1.808.687h18.116c.666-.001 1.309-.245 1.808-.687s.818-1.051.898-1.713l1.595-13.236c.016-.138.003-.278-.039-.411s-.112-.255-.204-.359-.206-.187-.333-.244-.265-.086-.404-.086h-.005z" fill="#f05e71"/><path d="M318.281 155.078l-1.592-13.236c-.016-.138-.003-.278.039-.411s.111-.254.204-.358.205-.187.332-.244.264-.087.403-.087h-2.2c-.139 0-.276.03-.403.087s-.24.14-.332.244-.162.226-.204.358-.055.273-.039.411l1.594 13.236c.08.662.399 1.271.898 1.713s1.142.687 1.808.687h2.2c-.667 0-1.31-.244-1.809-.686s-.819-1.052-.899-1.714h0z" fill="#e85066"/><g fill="#514e5b"><path d="M321.95 149.359c-.146 0-.286-.058-.389-.161s-.161-.243-.161-.389v-1.067c0-.146.058-.286.161-.389s.243-.161.389-.161.286.058.389.161.161.243.161.389v1.067c0 .146-.058.285-.161.389s-.242.161-.388.161h-.001zm11.795 0c-.072 0-.144-.014-.21-.042s-.128-.068-.179-.119-.091-.112-.119-.178-.042-.139-.042-.211v-1.067c0-.146.058-.286.161-.389s.243-.161.389-.161.286.058.389.161.161.243.161.389v1.067c0 .146-.058.286-.161.389s-.243.161-.389.161h0zm-5.898.569c-.353.003-.702-.07-1.024-.214s-.611-.354-.845-.618c-.051-.054-.09-.117-.115-.187s-.037-.143-.034-.217.022-.146.055-.213.077-.126.133-.174.121-.086.191-.109.144-.031.218-.025.145.028.211.062.123.082.169.14c.133.144.294.258.473.337s.373.119.569.119.389-.041.568-.119.34-.193.473-.337c.046-.059.104-.107.169-.143s.138-.058.212-.065.15.001.221.024.136.061.193.11.101.109.134.176.05.141.053.215-.009.149-.036.219-.067.133-.119.187c-.234.264-.522.475-.844.618s-.672.217-1.025.214z"/></g><path d="M339.317 130.198c-.911-1.028-2.029-1.851-3.282-2.414s-2.609-.856-3.983-.857h-8.411c-2.542 0-4.983.997-6.798 2.776s-2.86 4.2-2.91 6.742c-.002.178.031.355.097.52s.166.316.291.442.275.227.439.296.341.103.519.102h11.112l1.456-.836 1.456.836h11.111c.178.001.355-.034.519-.102s.314-.169.439-.296.225-.277.291-.442.1-.342.097-.52c-.047-2.306-.913-4.52-2.443-6.246v-.001z" fill="#d7ecec"/><path d="M316.131 136.444c.051-2.541 1.096-4.96 2.911-6.739s4.255-2.775 6.796-2.775h-2.2c-2.541 0-4.981.996-6.796 2.775s-2.861 4.198-2.912 6.739c-.002.178.031.355.097.52s.166.316.291.442.275.227.439.296.341.103.519.102h2.2c-.178.001-.354-.034-.519-.103s-.313-.168-.438-.295-.224-.277-.291-.442-.099-.342-.097-.52h0z" fill="#d9d9d9"/><g fill="#9ea8b3"><path d="M314.37 133.758l2.722 1.1c.067.027.138.041.211.04s.143-.015.209-.043.127-.069.178-.121.09-.112.117-.179.041-.138.04-.21-.015-.144-.043-.21-.069-.127-.121-.177-.112-.091-.179-.118l-2.75-1.112c-.147.336-.276.68-.384 1.03zm3.063-4.562l1.714 2.062c.044.062.1.114.165.154s.137.065.212.075.152.004.225-.017.141-.057.199-.105.107-.109.141-.176.053-.142.057-.218-.007-.152-.034-.223-.068-.136-.121-.19l-1.684-2.03c-.306.202-.601.421-.883.656l.009.012z"/></g><g fill="#8d97a1"><path d="M314.656 132.964l-.114.289-.173.506 1.985.8c.08-.361.18-.717.3-1.067l-1.9-.768-.098.24zm3.65-4.436l-.223.151-.446.331-.213.174 1 1.195.156-.181.605-.623-.879-1.047z"/></g><g fill="#9ea8b3"><path d="M323.275 126.938c-.372.014-.743.049-1.111.106.004.034.012.067.022.1l.815 2.518c.051.131.15.238.277.298s.272.07.405.027.246-.136.314-.259.085-.268.049-.404l-.771-2.386zm17.662 5.791l-2.747 1.113c-.071.024-.136.062-.192.113s-.1.111-.131.179-.048.142-.05.216.012.15.04.219.07.132.123.185.117.094.187.121.144.04.219.037.148-.02.216-.052l2.722-1.1c-.11-.351-.239-.695-.387-1.031h0zm-5.163-1.405c.056.046.12.081.189.102s.141.03.213.023.142-.027.206-.061.12-.079.166-.135l1.714-2.057.009-.012c-.282-.235-.576-.454-.883-.656l-1.685 2.02c-.046.055-.081.12-.102.189s-.03.141-.023.213.027.142.061.206.08.121.135.167v.001zM332 130.016c.069.022.141.031.213.025s.143-.026.207-.059.121-.079.168-.134.082-.119.104-.188l.815-2.518c.01-.033.018-.066.022-.1-.368-.057-.738-.092-1.11-.106l-.772 2.389c-.022.069-.031.141-.025.213s.025.142.058.206.078.122.133.168.118.083.187.105v-.001zm-4.702-3.04v2.518c0 .146.058.286.161.389s.243.161.389.161.286-.058.389-.161.161-.243.161-.389v-2.564h-1.1v.046z"/></g><path d="M328.641 132.353c0-.212-.084-.416-.234-.566s-.354-.234-.566-.234-.415.084-.565.234-.235.354-.235.566l-.656 5.449h2.911l-.655-5.449z" fill="#f05e71"/><path d="M326.653 135.624l-.262 2.177h2.911l-.262-2.177h-2.387z" fill="#e85066"/></g><g clip-path="url(#F)"><use xlink:href="#H" fill="#f3e8d6"/><use xlink:href="#H" fill="#e9e3d5"/><path d="M525.601 343.43c1.027 1.681 1.458 3.658 1.225 5.613s-1.116 3.776-2.509 5.169-3.213 2.276-5.168 2.51-3.933-.199-5.614-1.225c.693 1.133 1.633 2.094 2.751 2.81s2.383 1.171 3.702 1.327 2.655.013 3.909-.422 2.394-1.149 3.333-2.087 1.652-2.079 2.087-3.333.579-2.592.422-3.91-.611-2.584-1.327-3.702-1.678-2.058-2.811-2.75h0z" fill="#b6b0a2"/><path d="M520.422 342.162v17.511l.6.021.6-.021v-17.511l-.6-.021-.6.021z" fill="#fff9f0"/><path d="M492.247 352.552c-.712-.712-1.277-1.558-1.663-2.489s-.584-1.928-.584-2.936.198-2.005.584-2.935.951-1.777 1.663-2.489l18.457-18.456c.712-.712 1.558-1.278 2.489-1.663s1.928-.584 2.936-.584 2.005.198 2.935.584 1.777.951 2.489 1.663h0c.712.712 1.278 1.558 1.663 2.489s.584 1.928.584 2.935-.198 2.005-.584 2.936-.951 1.777-1.663 2.489l-18.457 18.456c-1.439 1.438-3.39 2.247-5.424 2.247s-3.985-.809-5.424-2.247h-.001z" fill="#e1effb"/><path d="M521.554 323.247c-.468-.469-.994-.875-1.566-1.208.85 1.464 1.193 3.168.974 4.847s-.987 3.238-2.184 4.435l-18.457 18.458c-1.197 1.197-2.757 1.965-4.436 2.184s-3.383-.124-4.847-.974c.334.571.74 1.096 1.208 1.563h0c.712.712 1.558 1.277 2.489 1.663s1.928.584 2.936.584 2.005-.198 2.935-.584 1.777-.951 2.489-1.663l18.459-18.455c.713-.712 1.278-1.558 1.664-2.489s.584-1.929.584-2.936-.199-2.005-.584-2.936-.951-1.777-1.664-2.489h0z" fill="#caddea"/><path d="M521.554 323.247c-.712-.712-1.558-1.278-2.489-1.663s-1.928-.584-2.935-.584-2.005.198-2.936.584-1.777.951-2.489 1.663l-9.227 9.228 10.848 10.849 9.228-9.228c1.439-1.439 2.247-3.39 2.247-5.425s-.808-3.985-2.247-5.424h0z" fill="#65db57"/><path d="M523.239 331.559l.131-.349c.123-.35.22-.709.29-1.073l.061-.364c.036-.243.059-.488.07-.733.053-1.069-.119-2.136-.504-3.134s-.976-1.904-1.734-2.66h0l-.166-.155-.05-.046-.125-.113-.051-.045-.147-.124-.026-.022-.187-.148-.008-.005-.179-.133-.03-.022-.173-.12-.018-.012-.407-.255c.851 1.464 1.193 3.168.975 4.846s-.986 3.239-2.183 4.436l-9.226 9.223 2.774 2.774 9.228-9.227c.726-.724 1.299-1.587 1.685-2.537v-.002z" fill="#01c61b"/></g><g clip-path="url(#G)"><path d="M1126.61 93.709h-3.24v4.126h3.24v-4.126z" fill="#fdc9a6"/><path d="M1123.37 95.624c.48.3335 1.04.5125 1.62.5125s1.15-.179 1.62-.5125v-1.915h-3.24v1.915z" fill="#f6bb92"/><g fill="#fdc9a6"><path d="M1121.75 92.091h-1.61c-.43 0-.84-.1705-1.15-.4739-.3-.3034-.47-.715-.47-1.1441h0c0-.2126.04-.4231.12-.6195s.2-.3749.35-.5252.33-.2697.53-.351c.19-.0814.4-.1233.62-.1233h1.62l-.01 3.237zm6.48 0h.8c.22.0001.43-.0417.62-.1229.2-.0813.38-.2005.53-.3507s.27-.3287.35-.5251.12-.4068.12-.6193h0c0-.4287-.17-.8399-.47-1.1434s-.72-.4741-1.14-.4746h-.81v3.236z"/><path d="M1124.99 84c-1.07 0-2.1.4263-2.86 1.185s-1.19 1.7879-1.19 2.861v2.426c0 .5366.09 1.0695.29 1.5678s.5.9517.88 1.3342c.37.3824.82.6862 1.32.8935.49.2073 1.02.3141 1.56.3141s1.07-.1068 1.56-.3141c.5-.2073.95-.5111 1.32-.8935.38-.3825.68-.836.88-1.3342s.29-1.0312.29-1.5678v-2.426c0-1.0729-.43-2.1019-1.19-2.8606s-1.79-1.1851-2.86-1.1854h0z"/></g><path d="M1124.99 84c-1.07 0-2.1.4263-2.86 1.185s-1.19 1.7879-1.19 2.861v.806l4.05-1.615 4.05 1.618v-.806c0-.5316-.11-1.058-.31-1.5493s-.5-.9376-.88-1.3136c-.37-.376-.82-.6743-1.31-.8778S1125.52 84 1124.99 84h0z" fill="#000"/><path d="M1141.98 125.264H1108l4.05-12.946h25.89l4.04 12.946z" fill="#4799cf"/><g fill="#428dc5"><path d="M1121.83 115.771l2.44 4.2 8.4-4.855c.19-.106.35-.248.48-.416s.22-.362.28-.567c.05-.205.07-.419.04-.63s-.1-.414-.2-.598l-.81-1.4c-.11-.185-.25-.347-.42-.476s-.36-.225-.57-.28c-.2-.055-.42-.068-.63-.04s-.41.099-.6.206l-8.41 4.856z"/><path d="M1118.84 120.301c.16.276.37.518.63.712.25.194.54.336.85.418.3.083.63.104.94.062.32-.042.62-.145.9-.305l2.1-1.214-2.43-4.2-2.1 1.214c-.56.322-.96.852-1.13 1.473s-.08 1.283.24 1.84h0z"/><path d="M1128.33 115.771l-2.43 4.2-8.4-4.854c-.18-.106-.34-.248-.47-.416s-.23-.362-.28-.567c-.06-.205-.07-.419-.04-.63s.09-.414.2-.598l.81-1.4c.21-.371.57-.642.98-.753s.86-.053 1.23.162l8.4 4.856z"/><path d="M1131.32 120.301c-.16.276-.37.518-.63.712-.25.194-.54.336-.85.418-.3.083-.63.104-.94.062-.32-.042-.62-.145-.9-.305l-2.1-1.214 2.43-4.2 2.1 1.214c.56.322.96.852 1.13 1.473s.08 1.283-.24 1.84z"/></g><path d="M1129.85 97.7549h-9.71v15.3721h9.71V97.7549z" fill="#289f87"/><path d="M1128.33 114.746l-2.43 4.2-8.4-4.854c-.18-.106-.35-.247-.48-.415s-.22-.36-.28-.566c-.05-.205-.07-.419-.04-.63s.09-.415.2-.599l.81-1.4c.1-.184.24-.345.41-.475s.36-.224.57-.279c.2-.055.42-.069.63-.041s.41.097.6.203l8.41 4.856z" fill="#ea9d2d"/><path d="M1131.32 119.274c-.16.276-.37.518-.63.712-.25.194-.54.336-.85.418-.3.083-.63.104-.94.062-.32-.042-.62-.146-.9-.305l-2.1-1.214 2.43-4.2 2.1 1.214c.56.322.96.851 1.13 1.473s.08 1.283-.24 1.84h0z" fill="#fdc9a6"/><path d="M1121.83 114.746l2.44 4.2 8.4-4.854c.37-.215.65-.569.76-.983s.05-.856-.17-1.227l-.8-1.4c-.11-.184-.25-.345-.42-.475s-.36-.224-.57-.279c-.2-.055-.42-.069-.63-.041s-.41.097-.6.203l-8.41 4.856z" fill="#fbb540"/><path d="M1118.84 119.274c.16.276.37.518.63.712.25.194.54.336.85.418.3.083.63.104.94.062.32-.042.62-.146.9-.305l2.1-1.214-2.43-4.2-2.1 1.214c-.56.322-.96.851-1.13 1.473s-.08 1.283.24 1.84h0z" fill="#fdc9a6"/><path d="M1129.85 97.7549l4.85 4.8541h4.05v3.237h-4.86l-4.04-3.237h-.81v-4.8541h.81z" fill="#289f87"/><path d="M1138.75 105.846h1.61c.22 0 .43-.042.62-.123.2-.081.38-.2.53-.351s.27-.328.35-.524.12-.407.12-.619h0c0-.429-.17-.841-.47-1.144-.31-.304-.72-.474-1.15-.474h-1.61v3.235z" fill="#fdc9a6"/><path d="M1120.14 97.7549l-4.86 4.8541h-4.04v3.237h4.85l4.05-3.237.82.01v-4.8641h-.82z" fill="#289f87"/><path d="M1111.24 105.846h-1.62c-.43 0-.84-.17-1.14-.474-.31-.303-.48-.714-.48-1.143h0c0-.213.04-.423.12-.62.09-.197.2-.375.35-.526.16-.15.33-.27.53-.351s.41-.123.62-.123h1.62v3.237z" fill="#fdc9a6"/><g fill="#428dc5"><path d="M1137.13 121.218h-1.62v1.618h1.62v-1.618zm-22.66 0h-1.62v1.618h1.62v-1.618zm21.04-3.236h-1.62v1.618h1.62v-1.618zm-19.42 0h-1.62v1.618h1.62v-1.618z"/></g></g></g><defs><filter id="A" x="602" y="8" width="235" height="235" filterUnits="userSpaceOnUse" color-interpolation-filters="sRGB"><feFlood flood-opacity="0" result="A"/><feColorMatrix in="SourceAlpha" values="0 0 0 0 0 0 0 0 0 0 0 0 0 0 0 0 0 0 127 0"/><feOffset/><feGaussianBlur stdDeviation="10"/><feColorMatrix values="0 0 0 0 0.0117647 0 0 0 0 0.329412 0 0 0 0 0.247059 0 0 0 0.2 0"/><feBlend in2="A"/><feBlend in="SourceGraphic"/></filter><clipPath id="B"><path fill="#fff" transform="translate(0 -102)" d="M0 0h1440v13426H0z"/></clipPath><clipPath id="C"><path fill="#fff" transform="translate(657 109)" d="M0 0h126.1029968262v48.5820007324H0z"/></clipPath><clipPath id="D"><path fill="#fff" transform="translate(911 315)" d="M0 0h62v48H0z"/></clipPath><clipPath id="E"><path fill="#fff" transform="translate(311 124)" d="M0 0h33.6959991455v36.408000946H0z"/></clipPath><clipPath id="F"><path fill="#fff" transform="translate(490 321)" d="M0 0h39.7989997864v38.6949996948H0z"/></clipPath><clipPath id="G"><path fill="#fff" transform="translate(1108 84)" d="M0 0h33.9819984436v41.263999939H0z"/></clipPath><path id="H" d="M521.023 359.695c4.847 0 8.776-3.929 8.776-8.776s-3.929-8.776-8.776-8.776-8.776 3.929-8.776 8.776 3.929 8.776 8.776 8.776z"/></defs></svg>